<?xml version="1.0" standalone="no"?>
<!DOCTYPE svg PUBLIC "-//W3C//DTD SVG 1.1//EN" "http://www.w3.org/Graphics/SVG/1.1/DTD/svg11.dtd" >
<svg>
<metadata>
Created by FontForge 20090914 at Fri May 24 20:03:53 2013
 By www-data
 The digitally encoded machine readable software for producing the Typefaces licensed to you is copyrighted (c) 1988, 1990, 1993 Adobe Systems. All Rights Reserved. This software is the property of Adobe Systems Incorporated and its licensors, and may not be reproduced, used,  displayed, modified, disclosed or transferred without the express  written approval of Adobe.  The digitally encoded machine readable outline data for producing the Typefaces licensed to you is copyrighted (c) 1981 Linotype-Hell AG and/or its subsidiaries. All Rights Reserved. This data is the property of Linotype-Hell AG and/or its subsidiaries and may not be reproduced, used, displayed, modified, disclosed or  transferred without the express written approval of Linotype-Hell AG  and/or its subsidiaries. 12 pt. Helvetica* Heavy 08130 
</metadata>
<defs>
<font id="HelveticaNeue-Heavy" horiz-adv-x="630" >
  <font-face 
    font-family="Helvetica Neue"
    font-weight="800"
    font-stretch="normal"
    units-per-em="1000"
    panose-1="2 0 9 3 0 0 0 0 0 0"
    ascent="800"
    descent="-200"
    x-height="519"
    cap-height="714"
    bbox="-169 -234 1096 951"
    underline-thickness="50"
    underline-position="-100"
    unicode-range="U+0020-U+FFFD"
  />
<missing-glyph horiz-adv-x="315" 
 />
    <glyph glyph-name=".notdef" unicode="&#xfffd;" horiz-adv-x="315" 
 />
    <glyph glyph-name="space" unicode=" " horiz-adv-x="315" 
 />
    <glyph glyph-name="exclam" unicode="!" horiz-adv-x="296" 
d="M236 714v-177l-46 -301h-83l-46 301v177h175zM55 0v186h186v-186h-186z" />
    <glyph glyph-name="quotedbl" unicode="&#x22;" horiz-adv-x="500" 
d="M294 354v360h144v-360h-144zM62 354v360h144v-360h-144z" />
    <glyph glyph-name="numbersign" unicode="#" 
d="M531 295v-105h-77l-26 -190h-115l26 190h-81l-26 -190h-115l26 190h-74v105h89l15 110h-74v105h89l26 187h115l-26 -187h81l26 187h115l-26 -187h62v-105h-77l-15 -110h62zM369 405h-81l-15 -110h81z" />
    <glyph glyph-name="dollar" unicode="$" 
d="M345 272v-143c26 2 48.333 8.5 67 19.5s28 27.5 28 49.5c0 18 -8 32.667 -24 44s-39.667 21.333 -71 30zM298 457v128.001c-23.333 -0.666992 -43.5 -6.16699 -60.5 -16.5s-25.5 -26.5 -25.5 -48.5c0 -14.667 7.33301 -26.834 22 -36.501s36 -18.5 64 -26.5zM345 819.001
l0.000976562 -90.9971c72.667 -4.66699 133.667 -26.5 183 -65.5s74.333 -94.833 75 -167.5h-186c2 45.333 -22 74 -72 86v-136c4 -0.666992 14.833 -3.33398 32.5 -8.00098l41.5 -11c29.333 -8 54.833 -16.833 76.5 -26.5s43.167 -22.334 64.5 -38.001
s37.666 -35.5 48.999 -59.5s17 -51.333 17 -82c0 -53.333 -13.667 -97.833 -41 -133.5s-61.166 -61 -101.499 -76s-86.5 -23.5 -138.5 -25.5v-90h-47v90c-86 2.66699 -156.167 24.5 -210.5 65.5s-81.833 102.833 -82.5 185.5h186c3.33301 -64.667 39 -100.667 107 -108v157
l-63 17c-30 8.66699 -55.667 17.667 -77 27s-42.833 21.666 -64.5 36.999s-38.334 35 -50.001 59s-17.5 51.667 -17.5 83c0 48.667 14 90 42 124s61.667 58.167 101 72.5s82.333 22.5 129 24.5v90h47z" />
    <glyph glyph-name="percent" unicode="%" horiz-adv-x="1019" 
d="M192 514c0 -14.667 0.333008 -26.5 1 -35.5s2.5 -20.333 5.5 -34s8.66699 -24.167 17 -31.5s18.833 -11 31.5 -11s23 3.66699 31 11s13.5 17.833 16.5 31.5s4.83301 25 5.5 34s1 20.833 1 35.5s-0.333008 26.5 -1 35.5s-2.5 20.333 -5.5 34s-8.5 24.167 -16.5 31.5
s-18.333 11 -31 11s-23.167 -3.66699 -31.5 -11s-14 -17.833 -17 -31.5s-4.83301 -25 -5.5 -34s-1 -20.833 -1 -35.5zM359 -27h-99l404 751h99zM75 514c0.666992 57.333 15.501 103.667 44.501 139s71.5 53 127.5 53c57.333 0 100.166 -17 128.499 -51s42.5 -81 42.5 -141
c0 -59.333 -14 -106.333 -42 -141s-71 -51.667 -129 -51c-58 -0.666992 -101 16.5 -129 51.5s-42.333 81.833 -43 140.5zM602.001 183.001c0.666992 57.333 15.501 103.667 44.501 139s71.5 53 127.5 53c57.333 0 100.166 -17 128.499 -51s42.5 -81 42.5 -141
c0 -59.333 -14 -106.333 -42 -141s-71 -51.667 -129 -51c-58 -0.666992 -101 16.5 -129 51.5s-42.333 81.833 -43 140.5zM719.002 183.002c0 -14.667 0.333008 -26.5 1 -35.5s2.5 -20.333 5.5 -34s8.66699 -24.167 17 -31.5s18.833 -11 31.5 -11s23 3.66699 31 11
s13.5 17.833 16.5 31.5s4.83301 25 5.5 34s1 20.833 1 35.5s-0.333008 26.5 -1 35.5s-2.5 20.333 -5.5 34s-8.5 24.167 -16.5 31.5s-18.333 11 -31 11s-23.167 -3.66699 -31.5 -11s-14 -17.833 -17 -31.5s-4.83301 -25 -5.5 -34s-1 -20.833 -1 -35.5z" />
    <glyph glyph-name="ampersand" unicode="&#x26;" horiz-adv-x="722" 
d="M387 174l-106.001 125c-21.333 -10 -40.5 -23.333 -57.5 -40s-25.5 -34.667 -25.5 -54c0 -24 9.5 -43.667 28.5 -59s40.833 -23 65.5 -23c26.667 0 58.334 17 95.001 51zM526.999 0l-50 60c-60.667 -50 -129 -75 -205 -75c-66 0 -122.167 20.167 -168.5 60.5
s-69.5 92.833 -69.5 157.5c0 88.667 54 158 162 208c-42 46.667 -63 92.334 -63 137.001c0 53.333 20.5 96.833 61.5 130.5s88.5 50.5 142.5 50.5c55.333 0 102.833 -17 142.5 -51s59.5 -78.667 59.5 -134c0 -76.667 -40.667 -135.667 -122 -177l74 -89
c14 21.333 22.667 44.666 26 69.999h146c-6 -66.667 -32.333 -124.667 -79 -174l150 -174h-207zM333.999 466c21.333 12.667 37.668 25.668 49.001 39.001s17 29.666 17 48.999c0 16.667 -5.5 30 -16.5 40s-25.5 15 -43.5 15c-15.333 0 -28.5 -5.16699 -39.5 -15.5
s-16.5 -22.833 -16.5 -37.5c0 -9.33301 1.83301 -18.5 5.5 -27.5s7.16699 -15.833 10.5 -20.5s9.16602 -12.167 17.499 -22.5s13.833 -16.833 16.5 -19.5z" />
    <glyph glyph-name="quotesingle" unicode="'" horiz-adv-x="296" 
d="M76 354v360h144v-360h-144z" />
    <glyph glyph-name="parenleft" unicode="(" horiz-adv-x="296" 
d="M161 729l144 0.00292969c-76 -156.667 -112.667 -308.334 -110 -455.001c-2.66699 -142 34 -291.333 110 -448h-144c-43.333 85.333 -74.666 160.833 -93.999 226.5s-29.666 139.5 -30.999 221.5c1.33301 85.333 11.666 161.166 30.999 227.499
s50.666 142.166 93.999 227.499z" />
    <glyph glyph-name="parenright" unicode=")" horiz-adv-x="296" 
d="M-9 729l144 -0.00292969c43.333 -85.333 74.666 -161.166 93.999 -227.499s29.666 -142.166 30.999 -227.499c-1.33301 -82 -11.666 -155.833 -30.999 -221.5s-50.666 -141.167 -93.999 -226.5h-144c76 156.667 112.667 306 110 448
c2.66699 146.667 -34 298.334 -110 455.001z" />
    <glyph glyph-name="asterisk" unicode="*" horiz-adv-x="444" 
d="M297 499l77 -103l-79 -59l-75 107l-74 -107l-78 58l79 104l-122 38l31 93l116 -44v128h99v-128l116 44l31 -93z" />
    <glyph glyph-name="plus" unicode="+" horiz-adv-x="600" 
d="M228 325v181h144v-181h180v-144h-180v-181h-144v181h-180v144h180z" />
    <glyph glyph-name="comma" unicode="," horiz-adv-x="316" 
d="M65 0l0.00195312 185.998h186v-165c0 -34 -6 -63.833 -18 -89.5s-27.833 -45.5 -47.5 -59.5s-39.334 -24.667 -59.001 -32s-40.167 -12 -61.5 -14v80c26.667 6.66699 46.167 17.334 58.5 32.001s20.166 35.334 23.499 62.001h-82z" />
    <glyph glyph-name="hyphen" unicode="-" horiz-adv-x="407" 
d="M359 200h-311v144h311v-144z" />
    <glyph glyph-name="period" unicode="." horiz-adv-x="316" 
d="M65 0v186h186v-186h-186z" />
    <glyph glyph-name="slash" unicode="/" horiz-adv-x="407" 
d="M-9 -15l269 744h156l-269 -744h-156z" />
    <glyph glyph-name="zero" unicode="0" 
d="M315 129c21.333 0 39.6709 5.00098 55.0039 15.001s26.666 21.667 33.999 35s13.166 31.333 17.499 54s6.83301 41.667 7.5 57s1 35 1 59c0 19.333 -0.333008 35.5 -1 48.5s-2 29 -4 48s-5.5 34.833 -10.5 47.5s-11.5 25.167 -19.5 37.5s-18.833 21.666 -32.5 27.999
s-29.5 9.5 -47.5 9.5c-25.333 0 -46.333 -6.66699 -63 -20s-28.334 -32.333 -35.001 -57s-11 -47.167 -13 -67.5s-3 -45.166 -3 -74.499c0 -18.667 0.333008 -34.834 1 -48.501s2.16699 -29.834 4.5 -48.501s6 -34.5 11 -47.5s11.5 -25.667 19.5 -38
s18.667 -21.666 32 -27.999s28.666 -9.5 45.999 -9.5zM310.005 -8.99902c-48 0 -90 9.83301 -126 29.5s-64.333 46.5 -85 80.5s-36.167 71.667 -46.5 113s-15.5 86.333 -15.5 135c0 38 3 74.167 9 108.5s16 66.833 30 97.5s31.333 57 52 79s46.5 39.5 77.5 52.5
s65.833 19.5 104.5 19.5c49.333 0 92.666 -9.66699 129.999 -29s67 -46 89 -80s38.333 -71.833 49 -113.5s16 -86.5 16 -134.5s-5.33301 -92.833 -16 -134.5s-27 -79.5 -49 -113.5s-51.667 -60.833 -89 -80.5s-80.666 -29.5 -129.999 -29.5z" />
    <glyph glyph-name="one" unicode="1" 
d="M272 428h-166.998v125c55.333 -1.33301 102.666 9.66699 141.999 33s60.666 60.333 63.999 111h141v-697h-180v428z" />
    <glyph glyph-name="two" unicode="2" 
d="M591 0l-559.002 0.00292969c1.33301 93.333 37.666 170.666 108.999 231.999c18 15.333 36.5 29.666 55.5 42.999s43.833 29.166 74.5 47.499s48 28.833 52 31.5c30 20 52.667 38.833 68 56.5s23 37.5 23 59.5c0 26.667 -8.16699 47.834 -24.5 63.501
s-38.166 23.5 -65.499 23.5c-76 0 -114.667 -47 -116 -141h-159c-5.33301 86.667 17.334 156.667 68.001 210s119.334 80 206.001 80c74 0 136 -19.167 186 -57.5s75 -92.833 75 -163.5c0 -30 -4.66699 -57 -14 -81s-23 -45 -41 -63s-36.667 -33.833 -56 -47.5
s-42 -28.5 -68 -44.5c-8.66699 -4.66699 -15 -8.33398 -19 -11.001c-54.667 -34 -96.667 -65.333 -126 -94h331v-144z" />
    <glyph glyph-name="three" unicode="3" 
d="M257 308l0.00195312 117.999c4.66699 0 12 -0.333008 22 -1s17.667 -0.666992 23 0c75.333 0 113 24.333 113 73c0 22 -9.5 39.167 -28.5 51.5s-42.833 18.5 -71.5 18.5c-34.667 0 -61.5 -8.66699 -80.5 -26s-28.167 -41.666 -27.5 -72.999h-159
c2 75.333 27.5 133.666 76.5 174.999s112.167 62 189.5 62c44 0 84.667 -5.83301 122 -17.5s69.666 -32.667 96.999 -63s41 -67.833 41 -112.5c0 -32.667 -8.5 -62.167 -25.5 -88.5s-40.833 -42.166 -71.5 -47.499v-2c79.333 -20.667 119 -74 119 -160
c0 -73.333 -27.833 -129 -83.5 -167s-121.834 -57 -198.501 -57c-86.667 0 -157 22.333 -211 67s-78.667 109.667 -74 195h159c-1.33301 -41.333 8.5 -72.333 29.5 -93s52.833 -31 95.5 -31c32 0 58.833 7.16699 80.5 21.5s32.5 35.833 32.5 64.5
c0 63.333 -41.333 95 -124 95c-10 0 -25 -0.666992 -45 -2z" />
    <glyph glyph-name="four" unicode="4" 
d="M506 299h91v-144h-91v-155h-170v155h-305v159l312 383h163v-398zM163 299h178v225h-2z" />
    <glyph glyph-name="five" unicode="5" 
d="M22 216h170.001c0.666992 -26 12.5 -47 35.5 -63s48.5 -24 76.5 -24c33.333 0 61 10.333 83 31s33 47.667 33 81c0 34.667 -9.66699 62.5 -29 83.5s-46.333 31.5 -81 31.5c-51.333 0 -88.333 -17.667 -111 -53h-154l68 394h440v-144h-309l-26 -127h2
c34 33.333 79.333 50 136 50c72 0 129 -19.833 171 -59.5s63 -95.5 63 -167.5c0 -82.667 -26.5 -146.334 -79.5 -191.001s-121.833 -67 -206.5 -67c-82 0 -148.333 17.833 -199 53.5s-78.334 92.834 -83.001 171.501z" />
    <glyph glyph-name="six" unicode="6" 
d="M207 237c0 -30.667 10.167 -56.333 30.5 -77s46.833 -31 79.5 -31c34.667 0 63 10.5 85 31.5s33 46.167 33 75.5c0 34 -10.5 62 -31.5 84s-50.167 33 -87.5 33c-31.333 0 -57.333 -11.167 -78 -33.5s-31 -49.833 -31 -82.5zM585 516.001h-159.001
c-5.33301 24.667 -17 42.667 -35 54c-13.333 7.33301 -29.666 11 -48.999 11c-44.667 0 -78.334 -17.833 -101.001 -53.5s-35.334 -76.834 -38.001 -123.501h2c30 49.333 84.333 74 163 74c63.333 0 116.833 -22.333 160.5 -67s65.5 -99 65.5 -163
c0 -80 -26.667 -142.833 -80 -188.5s-119.666 -68.5 -198.999 -68.5c-49.333 0 -92.5 9.83301 -129.5 29.5s-66 46.5 -87 80.5s-36.5 71.333 -46.5 112s-15 84.334 -15 131.001c0 104.667 25.833 191.167 77.5 259.5s127.5 102.5 227.5 102.5
c64 0 117.833 -16.167 161.5 -48.5s70.834 -79.5 81.501 -141.5z" />
    <glyph glyph-name="seven" unicode="7" 
d="M60 543l-0.000976562 154.001h507v-137c-17.333 -14.667 -41.166 -43.834 -71.499 -87.501s-56.166 -89.5 -77.499 -137.5c-47.333 -102 -71.666 -213.667 -72.999 -335h-183c2 47.333 10.667 101 26 161s37.333 118 66 174c21.333 48 46.666 92 75.999 132
s50.666 64.667 63.999 74v2h-334z" />
    <glyph glyph-name="eight" unicode="8" 
d="M317 314c-32.667 0 -60.501 -8.66699 -83.501 -26s-34.5 -42 -34.5 -74c0 -32.667 11.333 -57.167 34 -73.5s50.334 -24.5 83.001 -24.5s60.167 8 82.5 24s33.5 40.667 33.5 74c0 31.333 -10.833 55.833 -32.5 73.5s-49.167 26.5 -82.5 26.5zM28.999 205
c0 40.667 12.5 76.668 37.5 108.001s57.167 50.333 96.5 57v2c-32.667 8 -58.167 25 -76.5 51s-27.5 56.333 -27.5 91c0 43.333 13.833 80.166 41.5 110.499s60.334 51.5 98.001 63.5s77.5 18 119.5 18c31.333 0 61.5 -3.66699 90.5 -11s56.167 -18.333 81.5 -33
s45.666 -34.834 60.999 -60.501s23 -55.167 23 -88.5c0 -32.667 -9.5 -62.667 -28.5 -90s-43.833 -44.333 -74.5 -51v-2c40.667 -8 72.667 -26.667 96 -56s35 -65.666 35 -108.999c0 -48.667 -14.5 -89.667 -43.5 -123s-64.167 -56.833 -105.5 -70.5
s-86.666 -20.5 -135.999 -20.5c-36.667 0 -71.167 3.66699 -103.5 11s-62.833 18.833 -91.5 34.5s-51.334 38 -68.001 67s-25 62.833 -25 101.5zM315.999 581.001c-30.667 0 -56 -6.5 -76 -19.5s-30 -33.167 -30 -60.5c0 -28.667 10.167 -49.5 30.5 -62.5
s45.5 -19.5 75.5 -19.5c28.667 0 53.667 6.83301 75 20.5s32 34.167 32 61.5c0 26.667 -10.333 46.667 -31 60s-46 20 -76 20z" />
    <glyph glyph-name="nine" unicode="9" 
d="M308 343c35.333 0 63.498 10.832 84.498 32.499s31.5 48.834 31.5 81.501c0 32 -10.667 58.5 -32 79.5s-49.666 31.5 -84.999 31.5c-31.333 0 -57.666 -10.833 -78.999 -32.5s-32 -47.167 -32 -76.5c0 -33.333 10.167 -61 30.5 -83s47.5 -33 81.5 -33zM45.998 180.999
l158.998 -0.00292969c4 -21.333 15.333 -37.666 34 -48.999c16.667 -10.667 36.667 -16 60 -16c42.667 0 74.334 16.5 95.001 49.5s32 75.5 34 127.5h-2c-14.667 -25.333 -36.167 -44.166 -64.5 -56.499s-58.833 -18.5 -91.5 -18.5c-68.667 0 -124.667 22.333 -168 67
s-65 101.334 -65 170.001c0 73.333 26 133.5 78 180.5s115 70.5 189 70.5c65.333 0 120.166 -15.667 164.499 -47s76.333 -72 96 -122s29.5 -107.333 29.5 -172c0 -52 -5.66699 -99.833 -17 -143.5s-28.666 -83.167 -51.999 -118.5s-55 -62.833 -95 -82.5
s-87 -29.5 -141 -29.5c-65.333 0 -119.166 16 -161.499 48s-69.5 79.333 -81.5 142z" />
    <glyph glyph-name="colon" unicode=":" horiz-adv-x="316" 
d="M251 519v-186h-186v186h186zM65 0v186h186v-186h-186z" />
    <glyph glyph-name="semicolon" unicode=";" horiz-adv-x="316" 
d="M65 0l0.00195312 185.998h186v-165c0 -34 -6 -63.833 -18 -89.5s-27.833 -45.667 -47.5 -60s-39.334 -25 -59.001 -32s-40.167 -11.5 -61.5 -13.5v80c26.667 6.66699 46.167 17.334 58.5 32.001s20.166 35.334 23.499 62.001h-82zM251.002 518.998v-186h-186v186h186z
" />
    <glyph glyph-name="less" unicode="&#x3c;" horiz-adv-x="600" 
d="M554 -8l-508 190v142l508 190v-154l-307 -106v-2l307 -106v-154z" />
    <glyph glyph-name="equal" unicode="=" horiz-adv-x="600" 
d="M552 449v-144h-504v144h504zM552 201v-144h-504v144h504z" />
    <glyph glyph-name="greater" unicode="&#x3e;" horiz-adv-x="600" 
d="M46 -8v154l307 106v2l-307 106v154l508 -190v-142z" />
    <glyph glyph-name="question" unicode="?" horiz-adv-x="574" 
d="M206 480l-174.994 0.00292969c0.666992 78 24.667 139 72 183s110.666 66 189.999 66c68 0 126.667 -17.833 176 -53.5s74 -85.834 74 -150.501c0 -44.667 -9.33301 -78.834 -28 -102.501s-50.334 -49.5 -95.001 -77.5c-26.667 -17.333 -44.167 -32.5 -52.5 -45.5
s-12.833 -34.167 -13.5 -63.5h-158v50c0 24 4.66699 45.667 14 65s18.666 33.5 27.999 42.5s22.333 19.5 39 31.5c1.33301 1.33301 6.16602 4.66602 14.499 9.99902s13.5 8.83301 15.5 10.5s6.33301 5 13 10s11 8.66699 13 11l9.5 11c4.33301 5 7.16602 9.66699 8.49902 14
s2.66602 9.33301 3.99902 15s2 11.5 2 17.5c0 18.667 -6.16699 33.5 -18.5 44.5s-27.833 16.5 -46.5 16.5c-54 0 -82.667 -28.667 -86 -86v-19zM182.006 0.00292969v186h186v-186h-186z" />
    <glyph glyph-name="at" unicode="@" horiz-adv-x="800" 
d="M386 252c30 0 54.5 10.168 73.5 30.501s28.5 45.166 28.5 74.499c0 24 -7.16699 43.5 -21.5 58.5s-33.5 22.5 -57.5 22.5c-28 0 -51.5 -10.5 -70.5 -31.5s-28.5 -45.167 -28.5 -72.5c0 -24 6.66699 -43.667 20 -59s32 -23 56 -23zM517 488.001l8.99902 48.001h94
l-44 -238c-8.66699 -36.667 -6.33398 -55 6.99902 -55c24 0 45.5 13 64.5 39s28.5 63.667 28.5 113c0 78 -24 137.833 -72 179.5s-111.333 62.5 -190 62.5c-82 0 -147.833 -26.167 -197.5 -78.5s-74.5 -119.833 -74.5 -202.5c0 -86 26.667 -154 80 -204s123 -75 209 -75
c74 0 137 19.667 189 59h98c-72.667 -100.667 -171 -151 -295 -151c-108 0 -199.667 35.167 -275 105.5s-113 158.833 -113 265.5c0 106 37.167 194.667 111.5 266s164.5 107 270.5 107c92.667 0 173.834 -28.167 243.501 -84.5s104.5 -128.833 104.5 -217.5
c0 -43.333 -6.66699 -82.5 -20 -117.5s-29.833 -62.833 -49.5 -83.5s-41.334 -38 -65.001 -52s-45 -23.5 -64 -28.5s-35.167 -7.5 -48.5 -7.5c-40 0 -60.667 16.333 -62 49h-2c-24.667 -33.333 -56.667 -50 -96 -50c-43.333 0 -81.666 18 -114.999 54s-50 78.333 -50 127
c0 61.333 18.833 114.666 56.5 159.999s85.834 68 144.501 68c54 0 95 -19.333 123 -58z" />
    <glyph glyph-name="A" unicode="A" horiz-adv-x="704" 
d="M351 516l-81 -250h162l-79 250h-2zM-9 0l267 714h189l267 -714h-194l-44 128h-249l-45 -128h-191z" />
    <glyph glyph-name="B" unicode="B" horiz-adv-x="722" 
d="M250 313v-164h149c66.667 0 100 26.667 100 80c0 56 -33.333 84 -100 84h-149zM64 0v714.002h334c34 0.666992 65 -1.5 93 -6.5s55 -13.667 81 -26s46.5 -31 61.5 -56s22.5 -55.167 22.5 -90.5c0 -31.333 -8.5 -59.5 -25.5 -84.5s-39.833 -44.833 -68.5 -59.5
c38 -10.667 68 -31.334 90 -62.001s33 -66.334 33 -107.001c0 -148 -92.667 -222 -278 -222h-343zM250 570.002v-137h144c19.333 0 36.833 5.5 52.5 16.5s23.5 28.167 23.5 51.5c0 24 -7.16699 41.5 -21.5 52.5s-32.5 16.5 -54.5 16.5h-144z" />
    <glyph glyph-name="C" unicode="C" horiz-adv-x="759" 
d="M724 459h-185.999c-4.66699 35.333 -19.834 62.5 -45.501 81.5s-58.5 28.5 -98.5 28.5c-56 0 -97.667 -20.5 -125 -61.5s-41 -91.167 -41 -150.5s13.667 -109.5 41 -150.5s69 -61.5 125 -61.5c42.667 0 76.5 11.667 101.5 35s39.167 55.666 42.5 96.999h186
c-4.66699 -90.667 -37.167 -162 -97.5 -214s-136.5 -78 -228.5 -78c-106 0 -191.833 35.5 -257.5 106.5s-98.5 159.5 -98.5 265.5s32.833 194.5 98.5 265.5s151.5 106.5 257.5 106.5c82.667 0 157 -24.667 223 -74s100.333 -114.666 103 -195.999z" />
    <glyph glyph-name="D" unicode="D" horiz-adv-x="759" 
d="M64 0v714.001h307c109.333 0 195 -31.333 257 -94s93 -149.334 93 -260.001c0 -116 -30.833 -205 -92.5 -267s-147.5 -93 -257.5 -93h-307zM250 554.001v-394h88c70.667 1.33301 121.167 17.333 151.5 48s45.5 81.667 45.5 153c0 128.667 -65.667 193 -197 193h-88z" />
    <glyph glyph-name="E" unicode="E" horiz-adv-x="685" 
d="M64 0v714h569v-149h-383v-125h350v-144h-350v-136h393v-160h-579z" />
    <glyph glyph-name="F" unicode="F" horiz-adv-x="611" 
d="M64 0v714h526v-149h-340v-146h294v-144h-294v-275h-186z" />
    <glyph glyph-name="G" unicode="G" horiz-adv-x="778" 
d="M723 391l0.00195312 -391.002h-120l-11 78c-22.667 -32 -52.167 -55.5 -88.5 -70.5s-73.166 -22.5 -110.499 -22.5c-106 0 -191.833 35.5 -257.5 106.5s-98.5 159.5 -98.5 265.5s32.833 194.5 98.5 265.5s151.5 106.5 257.5 106.5c52 0 100.667 -8.66699 146 -26
s84.833 -46.166 118.5 -86.499s53.167 -88.833 58.5 -145.5h-186c-2.66699 30 -17.334 53.833 -44.001 71.5s-59 26.5 -97 26.5c-56 0 -97.667 -20.5 -125 -61.5s-41 -91.167 -41 -150.5s13.667 -109.5 41 -150.5s69 -61.5 125 -61.5c45.333 0 82.666 9.83301 111.999 29.5
s46.666 45.834 51.999 78.501h-130v138h300z" />
    <glyph glyph-name="H" unicode="H" horiz-adv-x="741" 
d="M62 0v714h186v-260h245v260h186v-714h-186v294h-245v-294h-186z" />
    <glyph glyph-name="I" unicode="I" horiz-adv-x="315" 
d="M64 0v714h186v-714h-186z" />
    <glyph glyph-name="J" unicode="J" horiz-adv-x="593" 
d="M528 714l0.000976562 -487.999c0 -160.667 -83.333 -241 -250 -241c-90 0 -154.167 23.333 -192.5 70s-57.5 112.667 -57.5 198v31h175v-66c0 -23.333 6.16699 -41.333 18.5 -54s30.166 -19 53.499 -19c22.667 0 39.5 7.16699 50.5 21.5s16.5 38.166 16.5 71.499v476h186
z" />
    <glyph glyph-name="K" unicode="K" horiz-adv-x="741" 
d="M64 0v714h186v-274l235 274h231l-264 -281l297 -433h-231l-192 300l-76 -80v-220h-186z" />
    <glyph glyph-name="L" unicode="L" horiz-adv-x="611" 
d="M64 0v714h186v-554h333v-160h-519z" />
    <glyph glyph-name="M" unicode="M" horiz-adv-x="926" 
d="M65 0v714h274l123 -476h2l123 476h274v-714h-175v542h-2l-150 -542h-142l-150 542h-2v-542h-175z" />
    <glyph glyph-name="N" unicode="N" horiz-adv-x="741" 
d="M62 0v714h191l248 -440h2v440h175v-714h-191l-248 445h-2v-445h-175z" />
    <glyph glyph-name="O" unicode="O" horiz-adv-x="778" 
d="M37 357c0 107.333 31.333 196.166 94 266.499s148.667 105.5 258 105.5s195.333 -35.167 258 -105.5s94 -159.166 94 -266.499s-31.333 -196.166 -94 -266.499s-148.667 -105.5 -258 -105.5s-195.333 35.167 -258 105.5s-94 159.166 -94 266.499zM223 357
c0 -59.333 13.667 -109.5 41 -150.5s69 -61.5 125 -61.5s97.667 20.5 125 61.5s41 91.167 41 150.5s-13.667 109.5 -41 150.5s-69 61.5 -125 61.5s-97.667 -20.5 -125 -61.5s-41 -91.167 -41 -150.5z" />
    <glyph glyph-name="P" unicode="P" horiz-adv-x="685" 
d="M64 0v714h339c74 0 135.5 -18.667 184.5 -56s73.5 -95.333 73.5 -174c0 -164 -86 -246 -258 -246h-153v-238h-186zM250 565v-183h125c66.667 0 100 29.667 100 89c0 32 -9 55.667 -27 71s-42.333 23 -73 23h-125z" />
    <glyph glyph-name="Q" unicode="Q" horiz-adv-x="778" 
d="M738 14l-85 -87.998l-98 96c-48 -24.667 -103.333 -37 -166 -37c-109.333 0 -195.333 35.167 -258 105.5s-94 159.166 -94 266.499s31.333 196.166 94 266.499s148.667 105.5 258 105.5s195.333 -35.167 258 -105.5s94 -159.166 94 -266.499
c0 -104.667 -29.667 -191.334 -89 -260.001zM370 204.002l83 87l70 -68c21.333 35.333 32 80 32 134c0 59.333 -13.667 109.5 -41 150.5s-69 61.5 -125 61.5s-97.667 -20.5 -125 -61.5s-41 -91.167 -41 -150.5s13.667 -109.5 41 -150.5s69 -61.5 125 -61.5
c14.667 0 27 1.33301 37 4z" />
    <glyph glyph-name="R" unicode="R" horiz-adv-x="722" 
d="M64 0l-0.00292969 713.999h364c44.667 0 85.167 -6.5 121.5 -19.5s66.833 -35 91.5 -66s37 -69.5 37 -115.5c0 -40 -9.66699 -76.333 -29 -109s-47 -56 -83 -70v-2c60.667 -14.667 95.334 -71.667 104.001 -171c6 -92.667 16 -146.334 30 -161.001h-184
c-3.33301 4.66699 -6.16602 10.834 -8.49902 18.501s-4.16602 16.5 -5.49902 26.5l-3.5 26.5c-1 7.66699 -1.83301 16.334 -2.5 26.001s-1 15.167 -1 16.5c-1.33301 21.333 -3.5 39.333 -6.5 54s-7.83301 29.667 -14.5 45s-17 27 -31 35s-31.333 12 -52 12h-141v-260h-186z
M249.997 564.999v-161h156c57.333 0 86 28 86 84c0 25.333 -8.83301 44.5 -26.5 57.5s-40.167 19.5 -67.5 19.5h-148z" />
    <glyph glyph-name="S" unicode="S" horiz-adv-x="667" 
d="M23 240l186.001 0.00195312c3.33301 -74 48.333 -111 135 -111c31.333 0 58.166 6 80.499 18s33.5 30.333 33.5 55c0 12 -3.33301 22.5 -10 31.5s-18.167 17.167 -34.5 24.5s-30.333 12.833 -42 16.5s-31.334 9 -59.001 16s-47.5 12.167 -59.5 15.5
c-30 8.66699 -55.667 17.667 -77 27s-42.833 21.666 -64.5 36.999s-38.334 35 -50.001 59s-17.5 51.667 -17.5 83c0 49.333 15.333 91 46 125s67.167 57.833 109.5 71.5s87.5 20.5 135.5 20.5c78 0 145 -19.5 201 -58.5s84.333 -96.167 85 -171.5h-186
c1.33301 30 -9.33398 51.833 -32.001 65.5s-50.334 20.5 -83.001 20.5c-24 0 -45 -4.83301 -63 -14.5s-27 -25.167 -27 -46.5c0 -10.667 3.5 -20 10.5 -28s18.333 -15 34 -21s30.167 -11 43.5 -15s32.833 -9 58.5 -15s45.834 -11 60.501 -15
c29.333 -8 54.833 -16.833 76.5 -26.5s43.167 -22.334 64.5 -38.001s37.666 -35.5 48.999 -59.5s17 -51.333 17 -82c0 -43.333 -8.66699 -81 -26 -113s-41.166 -56.833 -71.499 -74.5s-63.166 -30.667 -98.499 -39s-73.666 -12.5 -114.999 -12.5
c-89.333 0 -163.166 21 -221.499 63s-87.833 106 -88.5 192z" />
    <glyph glyph-name="T" unicode="T" horiz-adv-x="648" 
d="M630 714v-160h-213v-554h-186v554h-213v160h612z" />
    <glyph glyph-name="U" unicode="U" horiz-adv-x="741" 
d="M681 714v-419c0 -104.667 -25.167 -182.5 -75.5 -233.5s-128.833 -76.5 -235.5 -76.5s-185.167 25.5 -235.5 76.5s-75.5 128.833 -75.5 233.5v419h186v-430c0 -47.333 9.66699 -82.333 29 -105s51.333 -34 96 -34s76.667 11.333 96 34s29 57.667 29 105v430h186z" />
    <glyph glyph-name="V" unicode="V" horiz-adv-x="648" 
d="M659 714l-231 -714h-214l-225 714h194l140 -531h2l140 531h194z" />
    <glyph glyph-name="W" unicode="W" horiz-adv-x="963" 
d="M963 714l-197 -714h-186l-98 492h-2l-98 -492h-189l-193 714h186l101 -522h2l105 522h175l105 -522h2l101 522h186z" />
    <glyph glyph-name="X" unicode="X" horiz-adv-x="704" 
d="M-8 0l254 375l-233 339h219l120 -222l127 222h212l-231 -339l252 -375h-226l-134 238l-146 -238h-214z" />
    <glyph glyph-name="Y" unicode="Y" horiz-adv-x="667" 
d="M687 714l-260 -448v-266h-186v266l-260 448h211l142 -290l142 290h211z" />
    <glyph glyph-name="Z" unicode="Z" horiz-adv-x="667" 
d="M24 0v152l366 402h-344v160h584v-144l-375 -410h388v-160h-619z" />
    <glyph glyph-name="bracketleft" unicode="[" horiz-adv-x="370" 
d="M69 -174v903h294v-144h-135v-615h135v-144h-294z" />
    <glyph glyph-name="backslash" unicode="\" horiz-adv-x="407" 
d="M147 729l269 -744h-156l-269 744h156z" />
    <glyph glyph-name="bracketright" unicode="]" horiz-adv-x="370" 
d="M301 729v-903h-294v144h135v615h-135v144h294z" />
    <glyph glyph-name="asciicircum" unicode="^" horiz-adv-x="600" 
d="M206 332h-159l162 365h182l162 -365h-160l-93 238z" />
    <glyph glyph-name="underscore" unicode="_" horiz-adv-x="500" 
d="M500 -125h-500v50h500v-50z" />
    <glyph glyph-name="grave" unicode="`" horiz-adv-x="296" 
d="M145 724l97 -149h-120l-157 149h180z" />
    <glyph glyph-name="a" unicode="a" horiz-adv-x="593" 
d="M199 149c0 -20 6.66699 -34.833 20 -44.5s30.333 -14.5 51 -14.5c40 0 67.833 12 83.5 36s22.5 63 20.5 117c-7.33301 -4.66699 -16.666 -8.5 -27.999 -11.5s-24.833 -6 -40.5 -9s-27.834 -5.5 -36.501 -7.5c-46.667 -11.333 -70 -33.333 -70 -66zM209 359
l-159.001 -0.00195312c2.66699 62.667 29.667 109 81 139c42.667 24 97.667 36 165 36c26.667 0 50.834 -1.33301 72.501 -4s43.5 -7.66699 65.5 -15s40.333 -17.333 55 -30s26.5 -29.5 35.5 -50.5s13.5 -45.833 13.5 -74.5v-227c0 -61.333 6.66699 -105.666 20 -132.999
h-171c-4 10.667 -7.33301 27 -10 49c-40.667 -42.667 -97.667 -64 -171 -64c-52 0 -94.5 13.333 -127.5 40s-49.5 65.667 -49.5 117c0 27.333 5 50.833 15 70.5s22 35 36 46s32.833 20.333 56.5 28s44.667 12.834 63 15.501l69 10c27.667 4 48.5 7.33301 62.5 10
c16 3.33301 27.5 8.33301 34.5 15s10.5 17.667 10.5 33c0 18 -8.5 31.5 -25.5 40.5s-35.833 13.5 -56.5 13.5c-48.667 0 -77 -21.667 -85 -65z" />
    <glyph glyph-name="b" unicode="b" 
d="M57 0l0.00195312 714h170v-252h2c35.333 48 84.666 72 147.999 72c69.333 0 123.166 -25.667 161.499 -77s57.5 -113.333 57.5 -186c0 -51.333 -7.66699 -97.833 -23 -139.5s-41 -76.5 -77 -104.5s-80 -42 -132 -42c-61.333 0 -109 25 -143 75h-2v-60h-162zM325.002 404
c-27.333 0 -51.501 -11.001 -72.501 -33.001s-31.5 -57.333 -31.5 -106c0 -100 34.333 -150 103 -150c34.667 0 60.334 14.833 77.001 44.5s25 64.834 25 105.501c0 38 -8.16699 70.667 -24.5 98s-41.833 41 -76.5 41z" />
    <glyph glyph-name="c" unicode="c" horiz-adv-x="593" 
d="M560 329l-165 0.000976562c-0.666992 21.333 -9.16699 39.166 -25.5 53.499s-35.5 21.5 -57.5 21.5c-73.333 0 -110 -51 -110 -153c0 -37.333 8.5 -69.333 25.5 -96s42.167 -40 75.5 -40c56 0 88.333 29.667 97 89h165c-7.33301 -68 -35 -121.5 -83 -160.5
s-107.333 -58.5 -178 -58.5c-78.667 0 -143.667 24.667 -195 74s-77 113.333 -77 192c0 83.333 24.667 151.333 74 204s115.333 79 198 79c68 0 126.167 -17.833 174.5 -53.5s75.5 -86.167 81.5 -151.5z" />
    <glyph glyph-name="d" unicode="d" 
d="M306 404c-36 0 -62.333 -13.667 -79 -41s-25 -60 -25 -98c0 -41.333 8.33301 -76.666 25 -105.999s43 -44 79 -44c67.333 0 101 48.333 101 145c0 41.333 -8.16699 75.666 -24.5 102.999s-41.833 41 -76.5 41zM571 714l0.00195312 -714h-162v60h-2
c-34 -50 -81.667 -75 -143 -75c-52 0 -96 14 -132 42s-61.667 62.833 -77 104.5s-23 88.167 -23 139.5c0 72.667 19.167 134.667 57.5 186s92.166 77 161.499 77c63.333 0 112.666 -23.667 147.999 -71h2v251h170z" />
    <glyph glyph-name="e" unicode="e" horiz-adv-x="611" 
d="M202 313h210.998c-1.33301 29.333 -11.5 54.333 -30.5 75s-42.5 31 -70.5 31c-29.333 0 -53.666 -9.66699 -72.999 -29s-31.666 -45 -36.999 -77zM582.998 218l-380.997 -0.000976562c1.33301 -36 12.166 -64.667 32.499 -86s48.166 -32 83.499 -32
c21.333 0 40.833 5 58.5 15s30.5 24 38.5 42h159c-14.667 -56.667 -45.834 -99.5 -93.501 -128.5s-102.5 -43.5 -164.5 -43.5c-86 0 -154.833 24.5 -206.5 73.5s-77.5 116.5 -77.5 202.5c0 78.667 27.167 143.834 81.5 195.501s120.5 77.5 198.5 77.5
c90 0 158.667 -29.667 206 -89s69 -135 65 -227z" />
    <glyph glyph-name="f" unicode="f" horiz-adv-x="370" 
d="M94 0v409h-82v110h82c0 74 14.5 125 43.5 153s80.167 42 153.5 42c0.666992 0 28 -1 82 -3v-120c-16 2 -31.333 3 -46 3c-22 0 -38 -3.16699 -48 -9.5s-15 -20.5 -15 -42.5v-23h102v-110h-102v-409h-170z" />
    <glyph glyph-name="g" unicode="g" horiz-adv-x="611" 
d="M398 273c0 37.333 -8.16699 68.5 -24.5 93.5s-42.166 37.5 -77.499 37.5c-34.667 0 -59.834 -12.5 -75.501 -37.5s-23.5 -55.833 -23.5 -92.5c0 -34 8.16699 -62.833 24.5 -86.5s40.833 -35.5 73.5 -35.5c34 0 59.667 11.333 77 34s26 51.667 26 87zM559 519
l-0.00195312 -455.997c0 -21.333 -1.16699 -40.833 -3.5 -58.5s-8.5 -38.834 -18.5 -63.501s-23.5 -45.334 -40.5 -62.001s-42.5 -31 -76.5 -43s-74 -18 -120 -18c-70.667 0 -128.5 11.833 -173.5 35.5s-72.167 67.167 -81.5 130.5h170c4 -22 13.667 -37 29 -45
c14 -7.33301 34.667 -11 62 -11c36.667 0 60.667 10.333 72 31s17 50.667 17 90v49h-2c-15.333 -24 -35.333 -42.667 -60 -56s-50.667 -20 -78 -20c-75.333 0 -132.166 23.667 -170.499 71s-57.5 109.666 -57.5 186.999c0 72 20.333 132.333 61 181s96.334 73 167.001 73
c62.667 0 109 -26.667 139 -80h2v65h163z" />
    <glyph glyph-name="h" unicode="h" 
d="M57 0v713.999h170v-266h2c12.667 26 34.167 46.833 64.5 62.5s61.5 23.5 93.5 23.5c124.667 0 187 -67 187 -201v-333h-170v251c0 50 -2.33301 81.667 -7 95c-10 32 -36 48 -78 48c-30 0 -52.833 -10.667 -68.5 -32s-23.5 -47.666 -23.5 -78.999v-283h-170z" />
    <glyph glyph-name="i" unicode="i" horiz-adv-x="296" 
d="M63 0v519h170v-519h-170zM233 714v-130h-170v130h170z" />
    <glyph glyph-name="j" unicode="j" horiz-adv-x="296" 
d="M233 519l-0.000976562 -519c0 -64 -13.333 -109 -40 -135s-70.667 -39 -132 -39h-86v138h34c18.667 0.666992 32.334 4.5 41.001 11.5s13 19.167 13 36.5v507h170zM232.999 714v-130h-170v130h170z" />
    <glyph glyph-name="k" unicode="k" horiz-adv-x="593" 
d="M57 0v714h170v-368l155 173h197l-190 -196l214 -323h-205l-127 209l-44 -43v-166h-170z" />
    <glyph glyph-name="l" unicode="l" horiz-adv-x="296" 
d="M63 0v714h170v-714h-170z" />
    <glyph glyph-name="m" unicode="m" horiz-adv-x="926" 
d="M57 0v519h165v-71h2c16 26.667 37 47.667 63 63s54.667 23 86 23c76 0 126.333 -28 151 -84c42 56 96 84 162 84c31.333 0 58.666 -4.83301 81.999 -14.5s41.333 -21.5 54 -35.5s22.667 -31.667 30 -53s12 -41 14 -59s3 -38.667 3 -62v-310h-170v305
c0 28 -6.33301 49.833 -19 65.5s-30 23.5 -52 23.5c-33.333 0 -55 -11.167 -65 -33.5s-15 -57.833 -15 -106.5v-254h-170v295c0 66 -21.333 99 -64 99c-31.333 0 -53.666 -10.5 -66.999 -31.5s-20 -57.5 -20 -109.5v-253h-170z" />
    <glyph glyph-name="n" unicode="n" 
d="M57 0v518.999h165v-71h2c15.333 26 38.333 46.833 69 62.5s62 23.5 94 23.5c124.667 0 187 -67 187 -201v-333h-170v251c0 50 -2.33301 81.667 -7 95c-10 32 -36 48 -78 48c-30 0 -52.833 -10.667 -68.5 -32s-23.5 -47.666 -23.5 -78.999v-283h-170z" />
    <glyph glyph-name="o" unicode="o" horiz-adv-x="611" 
d="M202 259c0 -39.333 8.16699 -73.168 24.5 -101.501s42.5 -42.5 78.5 -42.5s62.333 14.333 79 43s25 62.334 25 101.001s-8.33301 72.5 -25 101.5s-43 43.5 -79 43.5s-62.167 -14.333 -78.5 -43s-24.5 -62.667 -24.5 -102zM32 258.998c0 78.667 25.5 144.167 76.5 196.5
s116.5 78.5 196.5 78.5s145.667 -26.167 197 -78.5s77 -117.833 77 -196.5s-25.667 -144 -77 -196s-117 -78 -197 -78s-145.5 26 -196.5 78s-76.5 117.333 -76.5 196z" />
    <glyph glyph-name="p" unicode="p" 
d="M325 404c-27.333 0 -51.501 -11.001 -72.501 -33.001s-31.5 -57.333 -31.5 -106c0 -100 34.333 -150 103 -150c34.667 0 60.334 14.833 77.001 44.5s25 64.834 25 105.501c0 38 -8.16699 70.667 -24.5 98s-41.833 41 -76.5 41zM56.999 -174.001l-0.00195312 693h162v-60
h2c34 50 81.667 75 143 75c52 0 96 -14 132 -42s61.667 -62.833 77 -104.5s23 -88.167 23 -139.5c0 -72.667 -19.167 -134.667 -57.5 -186s-92.166 -77 -161.499 -77c-63.333 0 -112.666 23.667 -147.999 71h-2v-230h-170z" />
    <glyph glyph-name="q" unicode="q" 
d="M202 254c0 -38 8.16699 -70.668 24.5 -98.001s41.833 -41 76.5 -41c27.333 0 51.5 11 72.5 33s31.5 57.667 31.5 107c0 42 -7.66699 77.333 -23 106s-41.333 43 -78 43c-36 0 -62.333 -14.667 -79 -44s-25 -64.666 -25 -105.999zM571 518.999l-0.00195312 -693h-170v231
h-2c-35.333 -48 -84.666 -72 -147.999 -72c-69.333 0 -123.166 25.667 -161.499 77s-57.5 113.333 -57.5 186c0 51.333 7.66699 97.833 23 139.5s41 76.5 77 104.5s80 42 132 42c61.333 0 109 -25 143 -75h2v60h162z" />
    <glyph glyph-name="r" unicode="r" horiz-adv-x="426" 
d="M63 0l0.00195312 519.001h165v-91h2c12.667 32.667 32.667 57.667 60 75s59.333 26 96 26c15.333 0 28.666 -1.33301 39.999 -4v-155c-24.667 6.66699 -46.334 10 -65.001 10c-40 0 -71.333 -11.833 -94 -35.5s-34 -52.834 -34 -87.501v-257h-170z" />
    <glyph glyph-name="s" unicode="s" horiz-adv-x="556" 
d="M27 171l162.002 0.00292969c0 -24.667 9.33301 -44 28 -58c16 -12 37 -18 63 -18c20 0 38.333 4.5 55 13.5s25 22.833 25 41.5c0 4 -0.5 8 -1.5 12s-2.83301 7.5 -5.5 10.5s-5.16699 5.66699 -7.5 8s-5.83301 4.5 -10.5 6.5s-8.33398 3.66699 -11.001 5
s-6.83398 2.83301 -12.501 4.5l-12 3.5c-2.33301 0.666992 -6.33301 1.66699 -12 3s-9.16699 2 -10.5 2c-10.667 2.66699 -28.667 6.66699 -54 12s-44.333 9.66602 -57 12.999s-28.834 9.16602 -48.501 17.499s-34.334 17.5 -44.001 27.5s-18.334 23.5 -26.001 40.5
s-11.5 36.833 -11.5 59.5c0 30 7.33301 55.833 22 77.5s34.334 38.167 59.001 49.5s49.834 19.5 75.501 24.5s52.5 7.5 80.5 7.5c30.667 0 59 -2.5 85 -7.5s50.833 -13.5 74.5 -25.5s42.5 -29.5 56.5 -52.5s21.667 -50.5 23 -82.5h-157c0 20.667 -7.33301 35.667 -22 45
c-13.333 8.66699 -31.333 13 -54 13c-48.667 0 -73 -13 -73 -39c0 -9.33301 3.83301 -17.5 11.5 -24.5s19.334 -13.167 35.001 -18.5s30 -9.5 43 -12.5s30.833 -6.5 53.5 -10.5s39 -7 49 -9c46.667 -9.33301 80.334 -28 101.001 -56s31 -56 31 -84
c0 -44 -13 -80.333 -39 -109s-56.833 -48.5 -92.5 -59.5s-74.834 -16.5 -117.501 -16.5c-32.667 0 -63 3 -91 9s-54.5 15.667 -79.5 29s-44.833 32.666 -59.5 57.999s-22.667 55.333 -24 90z" />
    <glyph glyph-name="t" unicode="t" horiz-adv-x="389" 
d="M370 519l-0.00195312 -109.999h-105v-236c0 -19.333 5 -32.5 15 -39.5s25.333 -10.5 46 -10.5c4.66699 0 11.834 0.333008 21.501 1s17.167 1 22.5 1v-125c-8 0 -22.667 -0.833008 -44 -2.5s-37.666 -2.5 -48.999 -2.5c-72 0 -120.333 12.667 -145 38
s-37 73.666 -37 144.999v231h-86v110h86v157h170v-157h105z" />
    <glyph glyph-name="u" unicode="u" 
d="M573 519l0.00195312 -519.002h-165v71h-2c-16 -26 -38.667 -46.833 -68 -62.5s-59.333 -23.5 -90 -23.5c-70.667 0 -120.334 18.833 -149.001 56.5s-43 92.834 -43 165.501v312h170v-301c0 -33.333 7 -57.166 21 -71.499s35 -21.5 63 -21.5c23.333 0 44.666 9 63.999 27
s29 47.667 29 89v278h170z" />
    <glyph glyph-name="v" unicode="v" horiz-adv-x="537" 
d="M540 519l-174 -519h-196l-173 519h177l95 -343h2l96 343h173z" />
    <glyph glyph-name="w" unicode="w" horiz-adv-x="833" 
d="M833 519l-162 -519h-172l-82 345h-2l-81 -345h-172l-162 519h172l87 -336h2l74 336h162l76 -335h2l85 335h173z" />
    <glyph glyph-name="x" unicode="x" horiz-adv-x="537" 
d="M-7 0l180 272l-165 247h188l73 -124l73 124h180l-162 -244l184 -275h-188l-90 150l-85 -150h-188z" />
    <glyph glyph-name="y" unicode="y" horiz-adv-x="537" 
d="M545 519l-205 -564.999c-19.333 -53.333 -44.5 -88 -75.5 -104s-78.167 -24 -141.5 -24h-80v138h59c20 0 36.333 5.16699 49 15.5s19 24.5 19 42.5c0 6.66699 -1.83301 16.667 -5.5 30s-7.5 25.666 -11.5 36.999l-15 40.5l-11 28.5l-134 361h180l98 -338h2l98 338h174z
" />
    <glyph glyph-name="z" unicode="z" horiz-adv-x="537" 
d="M22 0v132l259 257h-238v130h454v-129l-259 -260h278v-130h-494z" />
    <glyph glyph-name="braceleft" unicode="{" horiz-adv-x="370" 
d="M356 729l-0.000976562 -119.999h-41c-35.333 0 -53 -21.667 -53 -65v-164c-0.666992 -34 -12.834 -58.167 -36.501 -72.5s-49.834 -22.166 -78.501 -23.499v-3c14.667 -1.33301 26.834 -3 36.501 -5s21.334 -6.16699 35.001 -12.5s24.334 -17 32.001 -32
s11.5 -33.5 11.5 -55.5v-165c0 -43.333 17.667 -65 53 -65h41v-120h-118c-40 0 -72.5 12.167 -97.5 36.5s-37.5 61.5 -37.5 111.5v173c0 19.333 -6.16699 34.666 -18.5 45.999s-24.166 18.166 -35.499 20.499s-23 3.5 -35 3.5v120c12 0 23.667 1 35 3s23.166 8 35.499 18
s18.5 23.333 18.5 40v188c0 95.333 45 143 135 143h118z" />
    <glyph glyph-name="bar" unicode="|" horiz-adv-x="222" 
d="M39 -214v1000h144v-1000h-144z" />
    <glyph glyph-name="braceright" unicode="}" horiz-adv-x="370" 
d="M14 -174l-0.000976562 119.999h41c35.333 0 53 21.667 53 65v165c0 22 3.83301 40.5 11.5 55.5s18.334 25.667 32.001 32s25.334 10.5 35.001 12.5s21.834 3.66699 36.501 5v3c-28.667 1.33301 -54.834 9.16602 -78.501 23.499s-35.834 38.5 -36.501 72.5v164
c0 43.333 -17.667 65 -53 65h-41v120h118c90 0 135 -47.667 135 -143v-188c0 -16.667 6.16699 -30 18.5 -40s24.166 -16 35.499 -18s23 -3 35 -3v-120c-12 0 -23.667 -1.16699 -35 -3.5s-23.166 -9.16602 -35.499 -20.499s-18.5 -26.666 -18.5 -45.999v-173
c0 -50 -12.5 -87.167 -37.5 -111.5s-57.5 -36.5 -97.5 -36.5h-118z" />
    <glyph glyph-name="asciitilde" unicode="~" horiz-adv-x="600" 
d="M495 363l35.998 -130c-13.333 -18 -24.333 -32 -33 -42s-21.334 -19.833 -38.001 -29.5s-34.667 -14.5 -54 -14.5c-28 0 -62 11 -102 33c-41.333 23.333 -79.666 35 -114.999 35c-34 0 -62 -24 -84 -72l-36 130c30 57.333 71.667 86 125 86c26 0 63 -10.667 111 -32
l21.5 -9.5c9.66699 -4.33301 17.334 -7.66602 23.001 -9.99902l20 -8c7.66699 -3 14.5 -5.16699 20.5 -6.5s11.667 -2 17 -2c12.667 0 24.834 4 36.501 12s20.667 16.167 27 24.5s14.5 20.166 24.5 35.499z" />
    <glyph glyph-name="exclamdown" unicode="&#xa1;" horiz-adv-x="296" 
d="M61 -167v177l46 301h83l46 -301v-177h-175zM241 547v-186h-186v186h186z" />
    <glyph glyph-name="cent" unicode="&#xa2;" 
d="M299 118v282.999c-53.333 -12.667 -80 -62.667 -80 -150c0 -32.667 6.66699 -61.667 20 -87s33.333 -40.666 60 -45.999zM299 -105.001l0.00195312 91.999c-74 4.66699 -134.167 31.167 -180.5 79.5s-69.5 109.833 -69.5 184.5c0 79.333 22.5 145 67.5 197
s105.833 80.333 182.5 85v79h46v-79c62.667 -4 115.5 -23.667 158.5 -59s67.5 -83.666 73.5 -144.999h-165c-0.666992 18.667 -7.33398 34.667 -20.001 48s-28.334 21.333 -47.001 24v-283c40.667 8 64.667 36.667 72 86h165c-7.33301 -64 -32.5 -115.167 -75.5 -153.5
s-96.833 -59.5 -161.5 -63.5v-92h-46z" />
    <glyph glyph-name="sterling" unicode="&#xa3;" 
d="M119 -15l-67.999 102c29.333 19.333 54.833 41.833 76.5 67.5s32.5 52.5 32.5 80.5c0 25.333 -4.33301 47 -13 65h-106v105h67c-28.667 38.667 -43 76.334 -43 113.001c0 46.667 13.167 86.5 39.5 119.5s58.5 56.5 96.5 70.5s79.333 21 124 21
c80.667 0 144.667 -21.333 192 -64s69.666 -104 66.999 -184h-165c1.33301 29.333 -4.66699 54 -18 74s-34.333 30 -63 30c-26 0 -47 -6.83301 -63 -20.5s-24 -33.167 -24 -58.5c0 -13.333 4.33301 -30.5 13 -51.5s17.667 -37.5 27 -49.5h119v-105h-89
c4.66699 -13.333 7 -27.333 7 -42c0 -46.667 -23 -87.334 -69 -122.001l2 -2c19.333 12.667 44.333 19 75 19c11.333 0 30.5 -3.16699 57.5 -9.5s47.167 -9.5 60.5 -9.5c20 0 36.333 3.5 49 10.5s26 18.5 40 34.5l69 -123c-46 -47.333 -104 -71 -174 -71
c-21.333 0 -56 6.5 -104 19.5s-84.333 19.5 -109 19.5c-30.667 0 -66 -13 -106 -39z" />
    <glyph glyph-name="currency" unicode="&#xa4;" 
d="M118 88l-59.999 60.001l44 45c-34.667 46 -52 98.333 -52 157c0 55.333 16.333 106.666 49 153.999l-45 44l60 60l45 -44c46 34 98 51 156 51s110 -17 156 -51l43 44l60 -60l-44 -44c33.333 -46 50 -97.333 50 -154s-16.667 -108 -50 -154l44 -44l-60 -60l-44 44
c-44.667 -34 -96.334 -51 -155.001 -51c-55.333 0 -106 16 -152 48zM194.001 350.001c0 -40 11.667 -72.5 35 -97.5s52 -37.5 86 -37.5s62.667 12.5 86 37.5s35 57.5 35 97.5s-11.667 72.5 -35 97.5s-52 37.5 -86 37.5s-62.667 -12.5 -86 -37.5s-35 -57.5 -35 -97.5z" />
    <glyph glyph-name="yen" unicode="&#xa5;" 
d="M630 714l-149 -301h103v-105h-156l-20 -41v-31h176v-105h-176v-131h-186v131h-176v105h176v31l-20 41h-156v105h104l-150 301h186l128 -301h2l128 301h186z" />
    <glyph glyph-name="brokenbar" unicode="&#xa6;" horiz-adv-x="222" 
d="M39 -89v250h144v-250h-144zM183 661v-250h-144v250h144z" />
    <glyph glyph-name="section" unicode="&#xa7;" 
d="M220 275l187.002 -90.001c21.333 6 34.666 16.333 39.999 31c14 29.333 -1.66699 56.333 -47 81l-151 70c-20.667 9.33301 -37.167 10 -49.5 2s-19.166 -21.333 -20.499 -40c-0.666992 -12 2.16602 -21.667 8.49902 -29s17.166 -15.666 32.499 -24.999zM544.002 533.999
l-146.998 0.00195312c0 22 -7 39.333 -21 52c-13.333 12 -31 18 -53 18c-16.667 0 -31 -4.66699 -43 -14s-18 -22 -18 -38c0 -8.66699 1.83301 -16.5 5.5 -23.5s11 -13.833 22 -20.5l20.5 -12.5c2.66699 -1.66699 11 -5.83398 25 -12.501l166 -81
c31.333 -18 55 -37.167 71 -57.5s24 -46.5 24 -78.5c0 -35.333 -9.16699 -66.833 -27.5 -94.5s-43.5 -46.167 -75.5 -55.5c33.333 -28 50 -64.667 50 -110c0 -60.667 -22 -107.167 -66 -139.5s-97.667 -48.5 -161 -48.5c-70 0 -126.667 16.667 -170 50
s-65 84.666 -65 153.999h147c0 -24 8.33301 -43.667 25 -59c15.333 -13.333 35.333 -20 60 -20c20.667 0 37.5 5.66699 50.5 17s19.5 26.333 19.5 45c0 18 -12 35 -36 51s-53 30.833 -87 44.5s-68 28.667 -102 45s-63 38 -87 65s-36 57.833 -36 92.5
c0 74.667 35 125.334 105 152.001c-25.333 29.333 -38 62.666 -38 99.999c0 36.667 11.5 68.667 34.5 96s50.667 47.166 83 59.499s66.166 18.5 101.499 18.5c64.667 0 117.667 -16.667 159 -50s62.666 -81.666 63.999 -144.999z" />
    <glyph glyph-name="dieresis" unicode="&#xa8;" horiz-adv-x="296" 
d="M330 589h-150v125h150v-125zM-33 589v125h150v-125h-150z" />
    <glyph glyph-name="copyright" unicode="&#xa9;" horiz-adv-x="800" 
d="M400 -15c-68 0 -130.833 14.1689 -188.5 42.502s-105 71.333 -142 129s-55.5 124.5 -55.5 200.5s18.5 142.833 55.5 200.5s84.333 100.667 142 129s120.5 42.5 188.5 42.5c50 0 98.167 -8.5 144.5 -25.5s87.5 -40.833 123.5 -71.5s64.667 -69.834 86 -117.501
s32 -100.167 32 -157.5s-10.667 -109.833 -32 -157.5s-50 -86.834 -86 -117.501s-77.167 -54.5 -123.5 -71.5s-94.5 -25.5 -144.5 -25.5zM400 80.002c72 0 133.5 26.167 184.5 78.5s76.5 118.5 76.5 198.5s-25.5 146.167 -76.5 198.5s-112.5 78.5 -184.5 78.5
c-73.333 0 -135.166 -26.167 -185.499 -78.5s-75.5 -118.5 -75.5 -198.5s25.167 -146.167 75.5 -198.5s112.166 -78.5 185.499 -78.5zM499 303.002l93.999 0.000976562c-6.66699 -50 -26.667 -88.667 -60 -116s-72.666 -41 -117.999 -41c-62 0 -112.167 20.333 -150.5 61
s-57.5 91.667 -57.5 153c0 62.667 18.667 114.167 56 154.5s87.333 60.5 150 60.5c46 0 85 -13.333 117 -40s51.667 -64.334 59 -113.001h-90c-8 38.667 -36.667 58 -86 58c-28 0 -49.833 -10.5 -65.5 -31.5s-23.5 -49.833 -23.5 -86.5c0 -34.667 8.5 -63.5 25.5 -86.5
s38.833 -34.5 65.5 -34.5c53.333 0 81.333 20.667 84 62z" />
    <glyph glyph-name="ordfeminine" unicode="&#xaa;" horiz-adv-x="377" 
d="M239 501v18.999c-11.333 -4 -34 -9.66699 -68 -17c-30.667 -6 -46 -19.333 -46 -40c0 -9.33301 4.5 -16.666 13.5 -21.999s20.167 -8 33.5 -8c44.667 0 67 22.667 67 68zM132 591.999l-118.003 0.000976562c0.666992 44 18 75 52 93c28 14 68.667 21 122 21
c56.667 0 100.167 -7.66699 130.5 -23s45.5 -45.333 45.5 -90v-139c0 -36.667 4.33301 -67.334 13 -92.001h-129c-3.33301 9.33301 -5.66602 19 -6.99902 29c-22 -14 -40.667 -23.667 -56 -29c-16.667 -6 -35 -9 -55 -9c-40.667 0 -72.5 7.83301 -95.5 23.5
s-34.5 39.167 -34.5 70.5c0 50 23.333 83 70 99c16 5.33301 41.833 10.333 77.5 15s56.834 7.66699 63.501 9c19.333 4 29 13.667 29 29c0 8 -5.5 14.5 -16.5 19.5s-23.167 7.5 -36.5 7.5c-31.333 0 -49.666 -11.333 -54.999 -34z" />
    <glyph glyph-name="guillemotleft" unicode="&#xab;" horiz-adv-x="444" 
d="M45 194v152l159 128v-137l-86 -67l86 -66v-137zM240 194v152l159 128v-137l-86 -67l86 -66v-137z" />
    <glyph glyph-name="logicalnot" unicode="&#xac;" horiz-adv-x="600" 
d="M408 120v185h-360v144h504v-329h-144z" />
    <glyph glyph-name="registered" unicode="&#xae;" horiz-adv-x="800" 
d="M346 324l-0.000976562 -168.002h-98v403h151c56.667 0 99.334 -9.16699 128.001 -27.5s43 -50.166 43 -95.499c0 -67.333 -38.333 -102.666 -115 -105.999l103 -174h-95l-92 168h-25zM345.999 394.998h71c18.667 0 32.5 3.5 41.5 10.5s13.5 20.5 13.5 40.5
c0 28 -25 42 -75 42h-51v-93zM399.999 -15.002c-68 0 -130.833 14.1689 -188.5 42.502s-105 71.333 -142 129s-55.5 124.5 -55.5 200.5s18.5 142.833 55.5 200.5s84.333 100.667 142 129s120.5 42.5 188.5 42.5c50 0 98.167 -8.5 144.5 -25.5s87.5 -40.833 123.5 -71.5
s64.667 -69.834 86 -117.501s32 -100.167 32 -157.5s-10.667 -109.833 -32 -157.5s-50 -86.834 -86 -117.501s-77.167 -54.5 -123.5 -71.5s-94.5 -25.5 -144.5 -25.5zM399.999 80c72 0 133.5 26.167 184.5 78.5s76.5 118.5 76.5 198.5s-25.5 146.167 -76.5 198.5
s-112.5 78.5 -184.5 78.5c-73.333 0 -135.166 -26.167 -185.499 -78.5s-75.5 -118.5 -75.5 -198.5s25.167 -146.167 75.5 -198.5s112.166 -78.5 185.499 -78.5z" />
    <glyph glyph-name="macron" unicode="&#xaf;" horiz-adv-x="296" 
d="M311 604h-325v86h325v-86z" />
    <glyph glyph-name="degree" unicode="&#xb0;" horiz-adv-x="400" 
d="M40 546c0 44 15.667 81.667 47 113s69 47 113 47s81.667 -15.667 113 -47s47 -69 47 -113s-15.667 -81.667 -47 -113s-69 -47 -113 -47s-81.667 15.667 -113 47s-47 69 -47 113zM200 457c24 0 43.333 8.5 58 25.5s22 38.167 22 63.5s-7.33301 46.5 -22 63.5
s-34 25.5 -58 25.5s-43.333 -8.5 -58 -25.5s-22 -38.167 -22 -63.5s7.33301 -46.5 22 -63.5s34 -25.5 58 -25.5z" />
    <glyph glyph-name="plusminus" unicode="&#xb1;" horiz-adv-x="600" 
d="M228 417v101h144v-101h180v-144h-180v-101h-144v101h-180v144h180zM48 -12v144h504v-144h-504z" />
    <glyph glyph-name="twosuperior" unicode="&#xb2;" horiz-adv-x="378" 
d="M371 278h-364.999c0 60.667 23.667 109.334 71 146.001c16.667 13.333 56 37.666 118 72.999c39.333 24 59 44.667 59 62c0 16 -5.16699 28.667 -15.5 38s-23.833 14 -40.5 14c-44 0 -66.667 -28 -68 -84h-125c0 55.333 16 98.666 48 129.999
c32.667 32.667 80.667 49 144 49c54 0 97.833 -11.667 131.5 -35s50.5 -57.666 50.5 -102.999c0 -32.667 -10.333 -59 -31 -79s-51.334 -40.333 -92.001 -61c-17.333 -8.66699 -29.833 -15.167 -37.5 -19.5s-15.5 -9.5 -23.5 -15.5s-14 -12.667 -18 -20h194v-95z" />
    <glyph glyph-name="threesuperior" unicode="&#xb3;" horiz-adv-x="378" 
d="M167 455l0.00390625 82.002c3.33301 0 8.33301 -0.166992 15 -0.5s11.334 -0.5 14.001 -0.5c16 0 31 3 45 9s21 15.333 21 28c0 11.333 -5.83301 20.5 -17.5 27.5s-24.834 10.5 -39.501 10.5c-18.667 0 -33.834 -5.16699 -45.501 -15.5s-17.167 -23.833 -16.5 -40.5h-125
c1.33301 50 18.5 87.667 51.5 113s77.833 38 134.5 38c52.667 0 96.334 -9.83301 131.001 -29.5s52 -51.167 52 -94.5c0 -20.667 -5.83301 -38.334 -17.5 -53.001s-28.834 -23.667 -51.501 -27v-2c51.333 -6.66699 77 -38.334 77 -95.001
c0 -45.333 -18.333 -79.333 -55 -102s-82 -34 -136 -34c-58.667 0 -105.834 11.667 -141.501 35s-54.834 59 -57.501 107v23h125c0 -22.667 6.33301 -40 19 -52s30.667 -18 54 -18c16.667 0 32 3.83301 46 11.5s21 17.5 21 29.5c0 34 -24.667 51 -74 51
c-2.66699 0 -7.33398 -0.166992 -14.001 -0.5s-11.667 -0.5 -15 -0.5z" />
    <glyph glyph-name="acute" unicode="&#xb4;" horiz-adv-x="296" 
d="M142 724h180l-157 -149h-120z" />
    <glyph glyph-name="paragraph" unicode="&#xb6;" horiz-adv-x="620" 
d="M206 -169v534c-72 0 -127.167 15 -165.5 45s-57.5 72 -57.5 126c0 66.667 21.5 113 64.5 139s103.5 39 181.5 39h314v-883h-120v793h-97v-793h-120z" />
    <glyph glyph-name="periodcentered" unicode="&#xb7;" horiz-adv-x="315" 
d="M65 286c0 25.333 9.16699 47.166 27.5 65.499s40.166 27.5 65.499 27.5s47.166 -9.16699 65.499 -27.5s27.5 -40.166 27.5 -65.499s-9.16699 -47.166 -27.5 -65.499s-40.166 -27.5 -65.499 -27.5s-47.166 9.16699 -65.499 27.5s-27.5 40.166 -27.5 65.499z" />
    <glyph glyph-name="cedilla" unicode="&#xb8;" horiz-adv-x="296" 
d="M133 0h54.998l-40 -60l2 -2c10.667 3.33301 24 5 40 5c22.667 0 42.5 -6.5 59.5 -19.5s25.5 -33.167 25.5 -60.5c0 -64.667 -42.667 -97 -128 -97c-32.667 0 -72 10.333 -118 31l19 45c30 -10 57.333 -16.333 82 -19c14.667 -1.33301 26.834 1.16699 36.501 7.5
s14.5 15.5 14.5 27.5c0 25.333 -14.333 38 -43 38c-11.333 0 -24.666 -2.33301 -39.999 -7l-22 19z" />
    <glyph glyph-name="onesuperior" unicode="&#xb9;" horiz-adv-x="378" 
d="M163 523h-109v90c36 -0.666992 66.833 5.83301 92.5 19.5s39.5 35.167 41.5 64.5h100v-419h-125v245z" />
    <glyph glyph-name="ordmasculine" unicode="&#xba;" horiz-adv-x="387" 
d="M193 448c24.667 0 42.667 8.33301 54 25s17 35.334 17 56.001c0 21.333 -5.66699 40.333 -17 57s-29.333 25 -54 25s-42.5 -8.33301 -53.5 -25s-16.5 -35.667 -16.5 -57c0 -20.667 5.5 -39.334 16.5 -56.001s28.833 -25 53.5 -25zM193 353c-60 0 -107.501 16 -142.501 48
s-52.5 74.667 -52.5 128s17.333 96.166 52 128.499s82.334 48.5 143.001 48.5s108.5 -16.167 143.5 -48.5s52.5 -75.166 52.5 -128.499s-17.5 -96 -52.5 -128s-82.833 -48 -143.5 -48z" />
    <glyph glyph-name="guillemotright" unicode="&#xbb;" horiz-adv-x="444" 
d="M399 347v-152l-159 -128v137l86 67l-86 66v137zM204 347v-152l-159 -128v137l86 67l-86 66v137z" />
    <glyph glyph-name="onequarter" unicode="&#xbc;" horiz-adv-x="945" 
d="M298 -27h-99l411 751h99zM135 523h-109v90c36 -0.666992 66.833 5.83301 92.5 19.5s39.5 35.167 41.5 64.5h100v-419h-125v245zM855 179h64v-90h-64v-89h-126v89h-199v99l203 231h122v-240zM624 179h106v123z" />
    <glyph glyph-name="onehalf" unicode="&#xbd;" horiz-adv-x="945" 
d="M273 -27h-99l411 751h99zM124 523h-109v90c36 -0.666992 66.833 5.83301 92.5 19.5s39.5 35.167 41.5 64.5h100v-419h-125v245zM922 0h-364.999c0 60.667 23.667 109.334 71 146.001c16.667 13.333 56 37.666 118 72.999c39.333 24 59 44.667 59 62
c0 16 -5.16699 28.667 -15.5 38s-23.833 14 -40.5 14c-44 0 -66.667 -28 -68 -84h-125c0 55.333 16 98.666 48 129.999c32.667 32.667 80.667 49 144 49c54 0 97.833 -11.667 131.5 -35s50.5 -57.666 50.5 -102.999c0 -32.667 -10.333 -59 -31 -79
s-51.334 -40.333 -92.001 -61c-17.333 -8.66699 -29.833 -15.167 -37.5 -19.5s-15.5 -9.5 -23.5 -15.5s-14 -12.667 -18 -20h194v-95z" />
    <glyph glyph-name="threequarters" unicode="&#xbe;" horiz-adv-x="945" 
d="M177 453l0.00390625 82.002c3.33301 0 8.33301 -0.166992 15 -0.5s11.334 -0.5 14.001 -0.5c16 0 31 3 45 9s21 16 21 30c0 11.333 -5.83301 20.5 -17.5 27.5s-24.834 10.5 -39.501 10.5c-18.667 0 -33.834 -5.16699 -45.501 -15.5s-17.167 -23.833 -16.5 -40.5h-125
c1.33301 50 18.5 87.667 51.5 113s77.833 38 134.5 38c52.667 0 96.334 -9.83301 131.001 -29.5s52 -51.167 52 -94.5c0 -20.667 -5.83301 -38.334 -17.5 -53.001s-28.834 -23.667 -51.501 -27v-2c51.333 -6.66699 77 -38.334 77 -95.001
c0 -45.333 -18.333 -79.333 -55 -102s-82 -34 -136 -34c-58.667 0 -105.834 11.667 -141.501 35s-54.834 59 -57.501 107v23h125c0 -22.667 6.33301 -40 19 -52s30.667 -18 54 -18c16.667 0 32 3.83301 46 11.5s21 17.5 21 29.5c0 32.667 -24.667 49 -74 49
c-2.66699 0 -7.33398 -0.166992 -14.001 -0.5s-11.667 -0.5 -15 -0.5zM352.004 -26.998h-99l411 751h99zM866.004 179.002h64v-90h-64v-89h-126v89h-199v99l203 231h122v-240zM635.004 179.002h106v123z" />
    <glyph glyph-name="questiondown" unicode="&#xbf;" horiz-adv-x="574" 
d="M368 67l174.994 -0.00292969c-0.666992 -78 -24.667 -139 -72 -183s-110.666 -66 -189.999 -66c-68 0 -126.667 17.833 -176 53.5s-74 85.834 -74 150.501c0 44.667 9.33301 78.834 28 102.501s50.334 49.5 95.001 77.5c26.667 17.333 44.167 32.5 52.5 45.5
s12.833 34.167 13.5 63.5h158v-50c0 -24 -4.66699 -45.667 -14 -65s-18.666 -33.5 -27.999 -42.5s-22.333 -19.5 -39 -31.5c-1.33301 -1.33301 -6.16602 -4.66602 -14.499 -9.99902s-13.5 -8.83301 -15.5 -10.5s-6.33301 -5 -13 -10s-11 -8.66699 -13 -11l-9.5 -11
c-4.33301 -5 -7.16602 -9.66699 -8.49902 -14s-2.66602 -9.33301 -3.99902 -15s-2 -11.5 -2 -17.5c0 -18.667 6.16699 -33.5 18.5 -44.5s27.833 -16.5 46.5 -16.5c54 0 82.667 28.667 86 86v19zM391.994 546.997v-186h-186v186h186z" />
    <glyph glyph-name="Agrave" unicode="&#xc0;" horiz-adv-x="704" 
d="M351 516l-81 -250h162l-79 250h-2zM-9 0l267 714h189l267 -714h-194l-44 128h-249l-45 -128h-191zM349 907l97 -149h-120l-157 149h180z" />
    <glyph glyph-name="Aacute" unicode="&#xc1;" horiz-adv-x="704" 
d="M351 516l-81 -250h162l-79 250h-2zM-9 0l267 714h189l267 -714h-194l-44 128h-249l-45 -128h-191zM346 907h180l-157 -149h-120z" />
    <glyph glyph-name="Acircumflex" unicode="&#xc2;" horiz-adv-x="704" 
d="M351 516l-81 -250h162l-79 250h-2zM-9 0l267 714h189l267 -714h-194l-44 128h-249l-45 -128h-191zM352 838l-60 -80h-128l112 149h152l112 -149h-128z" />
    <glyph glyph-name="Atilde" unicode="&#xc3;" horiz-adv-x="704" 
d="M351 516l-81 -250h162l-79 250h-2zM-9 0l267 714h189l267 -714h-194l-44 128h-249l-45 -128h-191zM471 897h71.001c-4.66699 -37.333 -16.834 -67.833 -36.501 -91.5s-47.167 -35.5 -82.5 -35.5c-22 0 -49 6 -81 18s-53.333 18 -64 18s-20.167 -4.5 -28.5 -13.5
s-13.5 -19.5 -15.5 -31.5h-71c4.66699 36 17.667 67.667 39 95s48.666 41 81.999 41c18.667 0 45.334 -6.66699 80.001 -20c32 -14 53.667 -21 65 -21c10.667 0 20 4.16699 28 12.5s12.667 17.833 14 28.5z" />
    <glyph glyph-name="Adieresis" unicode="&#xc4;" horiz-adv-x="704" 
d="M351 516l-81 -250h162l-79 250h-2zM-9 0l267 714h189l267 -714h-194l-44 128h-249l-45 -128h-191zM534 772h-150v125h150v-125zM171 772v125h150v-125h-150z" />
    <glyph glyph-name="Aring" unicode="&#xc5;" horiz-adv-x="704" 
d="M351 516l-81 -250h162l-79 250h-2zM-9 0l267 714h189l267 -714h-194l-44 128h-249l-45 -128h-191zM352 737c-29.333 0 -54.5 10.667 -75.5 32s-31.5 46.333 -31.5 75c0 29.333 10.5 54.5 31.5 75.5s46.167 31.5 75.5 31.5s54.5 -10.333 75.5 -31s31.5 -46 31.5 -76
c0 -29.333 -10.5 -54.5 -31.5 -75.5s-46.167 -31.5 -75.5 -31.5zM352 792c14.667 0 27 5.16699 37 15.5s15 22.5 15 36.5c0 14.667 -5 27 -15 37s-22.333 15 -37 15s-27 -5 -37 -15s-15 -22.333 -15 -37c0 -14 5 -26.167 15 -36.5s22.333 -15.5 37 -15.5z" />
    <glyph glyph-name="AE" unicode="&#xc6;" horiz-adv-x="1019" 
d="M428 565l-130 -299h162v299h-32zM-14 0l334 714h648v-149h-328v-125h306v-144h-306v-136h337v-160h-517v128h-218l-58 -128h-198z" />
    <glyph glyph-name="Ccedilla" unicode="&#xc7;" horiz-adv-x="759" 
d="M538 277l186 0.000976562c-4.66699 -88.667 -35.834 -158.834 -93.501 -210.501s-131.167 -78.5 -220.5 -80.5l-31 -46l2 -2c10.667 3.33301 24 5 40 5c22.667 0 42.5 -6.5 59.5 -19.5s25.5 -33.167 25.5 -60.5c0 -64.667 -42.667 -97 -128 -97
c-32.667 0 -72 10.333 -118 31l19 45c30 -10 57.333 -16.333 82 -19c14.667 -1.33301 26.834 1.16699 36.501 7.5s14.5 15.5 14.5 27.5c0 25.333 -14.333 38 -43 38c-11.333 0 -24.666 -2.33301 -39.999 -7l-22 19l49 79c-94.667 10 -170.667 49.667 -228 119
s-86 153 -86 251c0 106 32.833 194.5 98.5 265.5s151.5 106.5 257.5 106.5c82.667 0 157 -24.667 223 -74s100.333 -114.666 103 -195.999h-186c-4.66699 35.333 -19.834 62.5 -45.501 81.5s-58.5 28.5 -98.5 28.5c-56 0 -97.667 -20.5 -125 -61.5s-41 -91.167 -41 -150.5
s13.667 -109.5 41 -150.5s69 -61.5 125 -61.5c42.667 0 76.5 11.667 101.5 35s39.167 55.666 42.5 96.999z" />
    <glyph glyph-name="Egrave" unicode="&#xc8;" horiz-adv-x="685" 
d="M64 0v714h569v-149h-383v-125h350v-144h-350v-136h393v-160h-579zM340 907l97 -149h-120l-157 149h180z" />
    <glyph glyph-name="Eacute" unicode="&#xc9;" horiz-adv-x="685" 
d="M64 0v714h569v-149h-383v-125h350v-144h-350v-136h393v-160h-579zM337 907h180l-157 -149h-120z" />
    <glyph glyph-name="Ecircumflex" unicode="&#xca;" horiz-adv-x="685" 
d="M64 0v714h569v-149h-383v-125h350v-144h-350v-136h393v-160h-579zM343 838l-60 -80h-128l112 149h152l112 -149h-128z" />
    <glyph glyph-name="Edieresis" unicode="&#xcb;" horiz-adv-x="685" 
d="M64 0v714h569v-149h-383v-125h350v-144h-350v-136h393v-160h-579zM525 772h-150v125h150v-125zM162 772v125h150v-125h-150z" />
    <glyph glyph-name="Igrave" unicode="&#xcc;" horiz-adv-x="315" 
d="M64 0v714h186v-714h-186zM155 907l97 -149h-120l-157 149h180z" />
    <glyph glyph-name="Iacute" unicode="&#xcd;" horiz-adv-x="315" 
d="M64 0v714h186v-714h-186zM152 907h180l-157 -149h-120z" />
    <glyph glyph-name="Icircumflex" unicode="&#xce;" horiz-adv-x="315" 
d="M64 0v714h186v-714h-186zM158 838l-60 -80h-128l112 149h152l112 -149h-128z" />
    <glyph glyph-name="Idieresis" unicode="&#xcf;" horiz-adv-x="315" 
d="M64 0v714h186v-714h-186zM340 772h-150v125h150v-125zM-23 772v125h150v-125h-150z" />
    <glyph glyph-name="Eth" unicode="&#xd0;" horiz-adv-x="759" 
d="M250 554v-114h158v-144h-158v-136h88c70.667 1.33301 121.167 17.333 151.5 48s45.5 81.667 45.5 153c0 128.667 -65.667 193 -197 193h-88zM64 0v296.001h-72v144h72v274h307c109.333 0 195 -31.333 257 -94s93 -149.334 93 -260.001c0 -116 -30.833 -205 -92.5 -267
s-147.5 -93 -257.5 -93h-307z" />
    <glyph glyph-name="Ntilde" unicode="&#xd1;" horiz-adv-x="741" 
d="M62 0v714h191l248 -440h2v440h175v-714h-191l-248 445h-2v-445h-175zM490 897h71.001c-4.66699 -37.333 -16.834 -67.833 -36.501 -91.5s-47.167 -35.5 -82.5 -35.5c-22 0 -49 6 -81 18s-53.333 18 -64 18s-20.167 -4.5 -28.5 -13.5s-13.5 -19.5 -15.5 -31.5h-71
c4.66699 36 17.667 67.667 39 95s48.666 41 81.999 41c18.667 0 45.334 -6.66699 80.001 -20c32 -14 53.667 -21 65 -21c10.667 0 20 4.16699 28 12.5s12.667 17.833 14 28.5z" />
    <glyph glyph-name="Ograve" unicode="&#xd2;" horiz-adv-x="778" 
d="M37 357c0 107.333 31.333 196.166 94 266.499s148.667 105.5 258 105.5s195.333 -35.167 258 -105.5s94 -159.166 94 -266.499s-31.333 -196.166 -94 -266.499s-148.667 -105.5 -258 -105.5s-195.333 35.167 -258 105.5s-94 159.166 -94 266.499zM223 357
c0 -59.333 13.667 -109.5 41 -150.5s69 -61.5 125 -61.5s97.667 20.5 125 61.5s41 91.167 41 150.5s-13.667 109.5 -41 150.5s-69 61.5 -125 61.5s-97.667 -20.5 -125 -61.5s-41 -91.167 -41 -150.5zM386 907l97 -149h-120l-157 149h180z" />
    <glyph glyph-name="Oacute" unicode="&#xd3;" horiz-adv-x="778" 
d="M37 357c0 107.333 31.333 196.166 94 266.499s148.667 105.5 258 105.5s195.333 -35.167 258 -105.5s94 -159.166 94 -266.499s-31.333 -196.166 -94 -266.499s-148.667 -105.5 -258 -105.5s-195.333 35.167 -258 105.5s-94 159.166 -94 266.499zM223 357
c0 -59.333 13.667 -109.5 41 -150.5s69 -61.5 125 -61.5s97.667 20.5 125 61.5s41 91.167 41 150.5s-13.667 109.5 -41 150.5s-69 61.5 -125 61.5s-97.667 -20.5 -125 -61.5s-41 -91.167 -41 -150.5zM383 907h180l-157 -149h-120z" />
    <glyph glyph-name="Ocircumflex" unicode="&#xd4;" horiz-adv-x="778" 
d="M37 357c0 107.333 31.333 196.166 94 266.499s148.667 105.5 258 105.5s195.333 -35.167 258 -105.5s94 -159.166 94 -266.499s-31.333 -196.166 -94 -266.499s-148.667 -105.5 -258 -105.5s-195.333 35.167 -258 105.5s-94 159.166 -94 266.499zM223 357
c0 -59.333 13.667 -109.5 41 -150.5s69 -61.5 125 -61.5s97.667 20.5 125 61.5s41 91.167 41 150.5s-13.667 109.5 -41 150.5s-69 61.5 -125 61.5s-97.667 -20.5 -125 -61.5s-41 -91.167 -41 -150.5zM389 838l-60 -80h-128l112 149h152l112 -149h-128z" />
    <glyph glyph-name="Otilde" unicode="&#xd5;" horiz-adv-x="778" 
d="M37 357c0 107.333 31.333 196.166 94 266.499s148.667 105.5 258 105.5s195.333 -35.167 258 -105.5s94 -159.166 94 -266.499s-31.333 -196.166 -94 -266.499s-148.667 -105.5 -258 -105.5s-195.333 35.167 -258 105.5s-94 159.166 -94 266.499zM223 357
c0 -59.333 13.667 -109.5 41 -150.5s69 -61.5 125 -61.5s97.667 20.5 125 61.5s41 91.167 41 150.5s-13.667 109.5 -41 150.5s-69 61.5 -125 61.5s-97.667 -20.5 -125 -61.5s-41 -91.167 -41 -150.5zM508 897h71.001c-4.66699 -37.333 -16.834 -67.833 -36.501 -91.5
s-47.167 -35.5 -82.5 -35.5c-22 0 -49 6 -81 18s-53.333 18 -64 18s-20.167 -4.5 -28.5 -13.5s-13.5 -19.5 -15.5 -31.5h-71c4.66699 36 17.667 67.667 39 95s48.666 41 81.999 41c18.667 0 45.334 -6.66699 80.001 -20c32 -14 53.667 -21 65 -21
c10.667 0 20 4.16699 28 12.5s12.667 17.833 14 28.5z" />
    <glyph glyph-name="Odieresis" unicode="&#xd6;" horiz-adv-x="778" 
d="M37 357c0 107.333 31.333 196.166 94 266.499s148.667 105.5 258 105.5s195.333 -35.167 258 -105.5s94 -159.166 94 -266.499s-31.333 -196.166 -94 -266.499s-148.667 -105.5 -258 -105.5s-195.333 35.167 -258 105.5s-94 159.166 -94 266.499zM223 357
c0 -59.333 13.667 -109.5 41 -150.5s69 -61.5 125 -61.5s97.667 20.5 125 61.5s41 91.167 41 150.5s-13.667 109.5 -41 150.5s-69 61.5 -125 61.5s-97.667 -20.5 -125 -61.5s-41 -91.167 -41 -150.5zM571 772h-150v125h150v-125zM208 772v125h150v-125h-150z" />
    <glyph glyph-name="multiply" unicode="&#xd7;" horiz-adv-x="600" 
d="M198 253l-144 144l102 102l144 -144l144 144l102 -102l-144 -144l144 -144l-102 -102l-144 144l-144 -144l-102 102z" />
    <glyph glyph-name="Oslash" unicode="&#xd8;" horiz-adv-x="778" 
d="M241 251l254 278c-26.667 26.667 -62 40 -106 40c-56 0 -97.667 -20.5 -125 -61.5s-41 -91.167 -41 -150.5c0 -38.667 6 -74 18 -106zM537 462l-253 -277c28 -26.667 63 -40 105 -40c56 0 97.667 20.5 125 61.5s41 91.167 41 150.5c0 39.333 -6 74.333 -18 105zM693 747
l58 -50l-87 -95c51.333 -65.333 77 -147 77 -245c0 -107.333 -31.333 -196.166 -94 -266.499s-148.667 -105.5 -258 -105.5c-88 0 -161.667 24 -221 72l-89 -97l-57 50l92 101c-51.333 66 -77 148 -77 246c0 107.333 31.333 196.166 94 266.499s148.667 105.5 258 105.5
c87.333 0 161.333 -24 222 -72z" />
    <glyph glyph-name="Ugrave" unicode="&#xd9;" horiz-adv-x="741" 
d="M681 714v-419c0 -104.667 -25.167 -182.5 -75.5 -233.5s-128.833 -76.5 -235.5 -76.5s-185.167 25.5 -235.5 76.5s-75.5 128.833 -75.5 233.5v419h186v-430c0 -47.333 9.66699 -82.333 29 -105s51.333 -34 96 -34s76.667 11.333 96 34s29 57.667 29 105v430h186zM368 907
l97 -149h-120l-157 149h180z" />
    <glyph glyph-name="Uacute" unicode="&#xda;" horiz-adv-x="741" 
d="M681 714v-419c0 -104.667 -25.167 -182.5 -75.5 -233.5s-128.833 -76.5 -235.5 -76.5s-185.167 25.5 -235.5 76.5s-75.5 128.833 -75.5 233.5v419h186v-430c0 -47.333 9.66699 -82.333 29 -105s51.333 -34 96 -34s76.667 11.333 96 34s29 57.667 29 105v430h186zM365 907
h180l-157 -149h-120z" />
    <glyph glyph-name="Ucircumflex" unicode="&#xdb;" horiz-adv-x="741" 
d="M681 714v-419c0 -104.667 -25.167 -182.5 -75.5 -233.5s-128.833 -76.5 -235.5 -76.5s-185.167 25.5 -235.5 76.5s-75.5 128.833 -75.5 233.5v419h186v-430c0 -47.333 9.66699 -82.333 29 -105s51.333 -34 96 -34s76.667 11.333 96 34s29 57.667 29 105v430h186zM371 838
l-60 -80h-128l112 149h152l112 -149h-128z" />
    <glyph glyph-name="Udieresis" unicode="&#xdc;" horiz-adv-x="741" 
d="M681 714v-419c0 -104.667 -25.167 -182.5 -75.5 -233.5s-128.833 -76.5 -235.5 -76.5s-185.167 25.5 -235.5 76.5s-75.5 128.833 -75.5 233.5v419h186v-430c0 -47.333 9.66699 -82.333 29 -105s51.333 -34 96 -34s76.667 11.333 96 34s29 57.667 29 105v430h186zM553 772
h-150v125h150v-125zM190 772v125h150v-125h-150z" />
    <glyph glyph-name="Yacute" unicode="&#xdd;" horiz-adv-x="667" 
d="M687 714l-260 -448v-266h-186v266l-260 448h211l142 -290l142 290h211zM328 907h180l-157 -149h-120z" />
    <glyph glyph-name="Thorn" unicode="&#xde;" horiz-adv-x="685" 
d="M64 714h186v-92h153c74 0 135.5 -18.667 184.5 -56s73.5 -95.333 73.5 -174c0 -164 -86 -246 -258 -246h-153v-146h-186v714zM250 473v-183h125c66.667 0 100 29.667 100 89c0 32 -9 55.667 -27 71s-42.333 23 -73 23h-125z" />
    <glyph glyph-name="germandbls" unicode="&#xdf;" 
d="M57 0l0.00195312 502.002c0 66 21 120.333 63 163s104.667 64 188 64c66 0 123.167 -16.5 171.5 -49.5s72.5 -81.5 72.5 -145.5c0 -30 -7.83301 -57.833 -23.5 -83.5s-36.834 -43.5 -63.501 -53.5v-2c39.333 -8 70.333 -28.667 93 -62s34 -71 34 -113
c0 -68 -21.333 -122.5 -64 -163.5s-98.334 -61.5 -167.001 -61.5c-9.33301 0 -37.333 1.66699 -84 5v129c18.667 -2.66699 33 -4 43 -4c32 0 57 10.167 75 30.5s27 46.5 27 78.5c0 40.667 -13.333 69.167 -40 85.5s-61 22.833 -103 19.5v101
c31.333 -2.66699 58.166 2.16602 80.499 14.499s33.5 34.166 33.5 65.499c0 24.667 -7.33301 44 -22 58s-33.667 21 -57 21c-37.333 0 -61.166 -10.167 -71.499 -30.5s-15.5 -52.833 -15.5 -97.5v-471h-170z" />
    <glyph glyph-name="agrave" unicode="&#xe0;" horiz-adv-x="593" 
d="M199 149c0 -20 6.66699 -34.833 20 -44.5s30.333 -14.5 51 -14.5c40 0 67.833 12 83.5 36s22.5 63 20.5 117c-7.33301 -4.66699 -16.666 -8.5 -27.999 -11.5s-24.833 -6 -40.5 -9s-27.834 -5.5 -36.501 -7.5c-46.667 -11.333 -70 -33.333 -70 -66zM209 359
l-159.001 -0.00195312c2.66699 62.667 29.667 109 81 139c42.667 24 97.667 36 165 36c26.667 0 50.834 -1.33301 72.501 -4s43.5 -7.66699 65.5 -15s40.333 -17.333 55 -30s26.5 -29.5 35.5 -50.5s13.5 -45.833 13.5 -74.5v-227c0 -61.333 6.66699 -105.666 20 -132.999
h-171c-4 10.667 -7.33301 27 -10 49c-40.667 -42.667 -97.667 -64 -171 -64c-52 0 -94.5 13.333 -127.5 40s-49.5 65.667 -49.5 117c0 27.333 5 50.833 15 70.5s22 35 36 46s32.833 20.333 56.5 28s44.667 12.834 63 15.501l69 10c27.667 4 48.5 7.33301 62.5 10
c16 3.33301 27.5 8.33301 34.5 15s10.5 17.667 10.5 33c0 18 -8.5 31.5 -25.5 40.5s-35.833 13.5 -56.5 13.5c-48.667 0 -77 -21.667 -85 -65zM293.999 723.998l97 -149h-120l-157 149h180z" />
    <glyph glyph-name="aacute" unicode="&#xe1;" horiz-adv-x="593" 
d="M199 149c0 -20 6.66699 -34.833 20 -44.5s30.333 -14.5 51 -14.5c40 0 67.833 12 83.5 36s22.5 63 20.5 117c-7.33301 -4.66699 -16.666 -8.5 -27.999 -11.5s-24.833 -6 -40.5 -9s-27.834 -5.5 -36.501 -7.5c-46.667 -11.333 -70 -33.333 -70 -66zM209 359
l-159.001 -0.00195312c2.66699 62.667 29.667 109 81 139c42.667 24 97.667 36 165 36c26.667 0 50.834 -1.33301 72.501 -4s43.5 -7.66699 65.5 -15s40.333 -17.333 55 -30s26.5 -29.5 35.5 -50.5s13.5 -45.833 13.5 -74.5v-227c0 -61.333 6.66699 -105.666 20 -132.999
h-171c-4 10.667 -7.33301 27 -10 49c-40.667 -42.667 -97.667 -64 -171 -64c-52 0 -94.5 13.333 -127.5 40s-49.5 65.667 -49.5 117c0 27.333 5 50.833 15 70.5s22 35 36 46s32.833 20.333 56.5 28s44.667 12.834 63 15.501l69 10c27.667 4 48.5 7.33301 62.5 10
c16 3.33301 27.5 8.33301 34.5 15s10.5 17.667 10.5 33c0 18 -8.5 31.5 -25.5 40.5s-35.833 13.5 -56.5 13.5c-48.667 0 -77 -21.667 -85 -65zM290.999 723.998h180l-157 -149h-120z" />
    <glyph glyph-name="acircumflex" unicode="&#xe2;" horiz-adv-x="593" 
d="M199 149c0 -20 6.66699 -34.833 20 -44.5s30.333 -14.5 51 -14.5c40 0 67.833 12 83.5 36s22.5 63 20.5 117c-7.33301 -4.66699 -16.666 -8.5 -27.999 -11.5s-24.833 -6 -40.5 -9s-27.834 -5.5 -36.501 -7.5c-46.667 -11.333 -70 -33.333 -70 -66zM209 359
l-159.001 -0.00195312c2.66699 62.667 29.667 109 81 139c42.667 24 97.667 36 165 36c26.667 0 50.834 -1.33301 72.501 -4s43.5 -7.66699 65.5 -15s40.333 -17.333 55 -30s26.5 -29.5 35.5 -50.5s13.5 -45.833 13.5 -74.5v-227c0 -61.333 6.66699 -105.666 20 -132.999
h-171c-4 10.667 -7.33301 27 -10 49c-40.667 -42.667 -97.667 -64 -171 -64c-52 0 -94.5 13.333 -127.5 40s-49.5 65.667 -49.5 117c0 27.333 5 50.833 15 70.5s22 35 36 46s32.833 20.333 56.5 28s44.667 12.834 63 15.501l69 10c27.667 4 48.5 7.33301 62.5 10
c16 3.33301 27.5 8.33301 34.5 15s10.5 17.667 10.5 33c0 18 -8.5 31.5 -25.5 40.5s-35.833 13.5 -56.5 13.5c-48.667 0 -77 -21.667 -85 -65zM296.999 654.998l-60 -80h-128l112 149h152l112 -149h-128z" />
    <glyph glyph-name="atilde" unicode="&#xe3;" horiz-adv-x="593" 
d="M199 149c0 -20 6.66699 -34.833 20 -44.5s30.333 -14.5 51 -14.5c40 0 67.833 12 83.5 36s22.5 63 20.5 117c-7.33301 -4.66699 -16.666 -8.5 -27.999 -11.5s-24.833 -6 -40.5 -9s-27.834 -5.5 -36.501 -7.5c-46.667 -11.333 -70 -33.333 -70 -66zM209 359
l-159.001 -0.00195312c2.66699 62.667 29.667 109 81 139c42.667 24 97.667 36 165 36c26.667 0 50.834 -1.33301 72.501 -4s43.5 -7.66699 65.5 -15s40.333 -17.333 55 -30s26.5 -29.5 35.5 -50.5s13.5 -45.833 13.5 -74.5v-227c0 -61.333 6.66699 -105.666 20 -132.999
h-171c-4 10.667 -7.33301 27 -10 49c-40.667 -42.667 -97.667 -64 -171 -64c-52 0 -94.5 13.333 -127.5 40s-49.5 65.667 -49.5 117c0 27.333 5 50.833 15 70.5s22 35 36 46s32.833 20.333 56.5 28s44.667 12.834 63 15.501l69 10c27.667 4 48.5 7.33301 62.5 10
c16 3.33301 27.5 8.33301 34.5 15s10.5 17.667 10.5 33c0 18 -8.5 31.5 -25.5 40.5s-35.833 13.5 -56.5 13.5c-48.667 0 -77 -21.667 -85 -65zM415.999 713.998h71.001c-4.66699 -37.333 -16.834 -67.833 -36.501 -91.5s-47.167 -35.5 -82.5 -35.5c-22 0 -49 6 -81 18
s-53.333 18 -64 18s-20.167 -4.5 -28.5 -13.5s-13.5 -19.5 -15.5 -31.5h-71c4.66699 36 17.667 67.667 39 95s48.666 41 81.999 41c18.667 0 45.334 -6.66699 80.001 -20c32 -14 53.667 -21 65 -21c10.667 0 20 4.16699 28 12.5s12.667 17.833 14 28.5z" />
    <glyph glyph-name="adieresis" unicode="&#xe4;" horiz-adv-x="593" 
d="M199 149c0 -20 6.66699 -34.833 20 -44.5s30.333 -14.5 51 -14.5c40 0 67.833 12 83.5 36s22.5 63 20.5 117c-7.33301 -4.66699 -16.666 -8.5 -27.999 -11.5s-24.833 -6 -40.5 -9s-27.834 -5.5 -36.501 -7.5c-46.667 -11.333 -70 -33.333 -70 -66zM209 359
l-159.001 -0.00195312c2.66699 62.667 29.667 109 81 139c42.667 24 97.667 36 165 36c26.667 0 50.834 -1.33301 72.501 -4s43.5 -7.66699 65.5 -15s40.333 -17.333 55 -30s26.5 -29.5 35.5 -50.5s13.5 -45.833 13.5 -74.5v-227c0 -61.333 6.66699 -105.666 20 -132.999
h-171c-4 10.667 -7.33301 27 -10 49c-40.667 -42.667 -97.667 -64 -171 -64c-52 0 -94.5 13.333 -127.5 40s-49.5 65.667 -49.5 117c0 27.333 5 50.833 15 70.5s22 35 36 46s32.833 20.333 56.5 28s44.667 12.834 63 15.501l69 10c27.667 4 48.5 7.33301 62.5 10
c16 3.33301 27.5 8.33301 34.5 15s10.5 17.667 10.5 33c0 18 -8.5 31.5 -25.5 40.5s-35.833 13.5 -56.5 13.5c-48.667 0 -77 -21.667 -85 -65zM478.999 588.998h-150v125h150v-125zM115.999 588.998v125h150v-125h-150z" />
    <glyph glyph-name="aring" unicode="&#xe5;" horiz-adv-x="593" 
d="M199 149c0 -20 6.66699 -34.833 20 -44.5s30.333 -14.5 51 -14.5c40 0 67.833 12 83.5 36s22.5 63 20.5 117c-7.33301 -4.66699 -16.666 -8.5 -27.999 -11.5s-24.833 -6 -40.5 -9s-27.834 -5.5 -36.501 -7.5c-46.667 -11.333 -70 -33.333 -70 -66zM209 359
l-159.001 -0.00195312c2.66699 62.667 29.667 109 81 139c42.667 24 97.667 36 165 36c26.667 0 50.834 -1.33301 72.501 -4s43.5 -7.66699 65.5 -15s40.333 -17.333 55 -30s26.5 -29.5 35.5 -50.5s13.5 -45.833 13.5 -74.5v-227c0 -61.333 6.66699 -105.666 20 -132.999
h-171c-4 10.667 -7.33301 27 -10 49c-40.667 -42.667 -97.667 -64 -171 -64c-52 0 -94.5 13.333 -127.5 40s-49.5 65.667 -49.5 117c0 27.333 5 50.833 15 70.5s22 35 36 46s32.833 20.333 56.5 28s44.667 12.834 63 15.501l69 10c27.667 4 48.5 7.33301 62.5 10
c16 3.33301 27.5 8.33301 34.5 15s10.5 17.667 10.5 33c0 18 -8.5 31.5 -25.5 40.5s-35.833 13.5 -56.5 13.5c-48.667 0 -77 -21.667 -85 -65zM296.999 559.998c-29.333 0 -54.5 10.667 -75.5 32s-31.5 46.333 -31.5 75c0 29.333 10.5 54.5 31.5 75.5s46.167 31.5 75.5 31.5
s54.5 -10.333 75.5 -31s31.5 -46 31.5 -76c0 -29.333 -10.5 -54.5 -31.5 -75.5s-46.167 -31.5 -75.5 -31.5zM296.999 614.998c14.667 0 27 5.16699 37 15.5s15 22.5 15 36.5c0 14.667 -5 27 -15 37s-22.333 15 -37 15s-27 -5 -37 -15s-15 -22.333 -15 -37
c0 -14 5 -26.167 15 -36.5s22.333 -15.5 37 -15.5z" />
    <glyph glyph-name="ae" unicode="&#xe6;" horiz-adv-x="944" 
d="M537 313h202.999c0 30.667 -8.83301 56 -26.5 76s-41.834 30 -72.501 30c-29.333 0 -53.166 -10.333 -71.499 -31s-29.166 -45.667 -32.499 -75zM279.999 90c14.667 0 27.835 1.49902 39.502 4.49902s21.167 7.33301 28.5 13s13.833 12 19.5 19s9.66699 14.667 12 23
s4.5 16.833 6.5 25.5s2.83301 17 2.5 25s-0.166016 15.833 0.500977 23.5s0.666992 14.167 0 19.5c-6.66699 -6 -15.5 -10.5 -26.5 -13.5s-26.333 -6.16699 -46 -9.5s-32.834 -5.66602 -39.501 -6.99902c-24.667 -4.66699 -43.834 -11.667 -57.501 -21s-20.5 -24 -20.5 -44
c0 -20.667 8.16699 -35.5 24.5 -44.5s35.166 -13.5 56.499 -13.5zM742 156.999l159.999 -0.000976562c-13.333 -51.333 -44 -93.333 -92 -126c-44.667 -30.667 -96 -46 -154 -46c-91.333 0 -158 26.333 -200 79c-36 -28.667 -72.167 -49 -108.5 -61
s-80.166 -18 -131.499 -18c-56.667 0 -102 13.167 -136 39.5s-51 65.5 -51 117.5c0 27.333 5 50.833 15 70.5s22 35 36 46s32.833 20.333 56.5 28s44.667 12.834 63 15.501l69 10c27.667 4 48.5 7.33301 62.5 10c24.667 7.33301 40.667 14 48 20s11 14.333 11 25
c0 22 -8.33301 37 -25 45s-40.334 12 -71.001 12c-48.667 0 -77 -21.667 -85 -65h-159c2.66699 62.667 29.667 109 81 139c42.667 24 97.667 36 165 36c90 0 153 -21.667 189 -65c41.333 43.333 95.333 65 162 65c86 0 153 -30.833 201 -92.5s68.667 -136.167 62 -223.5
h-373c0.666992 -33.333 9.83398 -61.333 27.501 -84s43.5 -34 77.5 -34c48 0 81.333 19 100 57z" />
    <glyph glyph-name="ccedilla" unicode="&#xe7;" horiz-adv-x="593" 
d="M400 204h165c-6.66699 -64 -31.834 -115.333 -75.501 -154s-97.834 -59.667 -162.501 -63l-31 -47l2 -2c10.667 3.33301 24 5 40 5c22.667 0 42.5 -6.5 59.5 -19.5s25.5 -33.167 25.5 -60.5c0 -64.667 -42.667 -97 -128 -97c-32.667 0 -72 10.333 -118 31l19 45
c30 -10 57.333 -16.333 82 -19c14.667 -1.33301 26.834 1.16699 36.501 7.5s14.5 15.5 14.5 27.5c0 25.333 -14.333 38 -43 38c-11.333 0 -24.666 -2.33301 -39.999 -7l-22 19l49 80c-71.333 6.66699 -129.333 33.834 -174 81.501s-67 108.167 -67 181.5
c0 83.333 24.667 151.333 74 204s115.333 79 198 79c68 0 126.167 -17.833 174.5 -53.5s75.5 -86.167 81.5 -151.5h-165c-0.666992 21.333 -9.16699 39.166 -25.5 53.499s-35.5 21.5 -57.5 21.5c-73.333 0 -110 -51 -110 -153c0 -37.333 8.5 -69.333 25.5 -96
s42.167 -40 75.5 -40c56 0 88.333 29.667 97 89z" />
    <glyph glyph-name="egrave" unicode="&#xe8;" horiz-adv-x="611" 
d="M202 313h210.998c-1.33301 29.333 -11.5 54.333 -30.5 75s-42.5 31 -70.5 31c-29.333 0 -53.666 -9.66699 -72.999 -29s-31.666 -45 -36.999 -77zM582.998 218l-380.997 -0.000976562c1.33301 -36 12.166 -64.667 32.499 -86s48.166 -32 83.499 -32
c21.333 0 40.833 5 58.5 15s30.5 24 38.5 42h159c-14.667 -56.667 -45.834 -99.5 -93.501 -128.5s-102.5 -43.5 -164.5 -43.5c-86 0 -154.833 24.5 -206.5 73.5s-77.5 116.5 -77.5 202.5c0 78.667 27.167 143.834 81.5 195.501s120.5 77.5 198.5 77.5
c90 0 158.667 -29.667 206 -89s69 -135 65 -227zM303.001 723.999l97 -149h-120l-157 149h180z" />
    <glyph glyph-name="eacute" unicode="&#xe9;" horiz-adv-x="611" 
d="M202 313h210.998c-1.33301 29.333 -11.5 54.333 -30.5 75s-42.5 31 -70.5 31c-29.333 0 -53.666 -9.66699 -72.999 -29s-31.666 -45 -36.999 -77zM582.998 218l-380.997 -0.000976562c1.33301 -36 12.166 -64.667 32.499 -86s48.166 -32 83.499 -32
c21.333 0 40.833 5 58.5 15s30.5 24 38.5 42h159c-14.667 -56.667 -45.834 -99.5 -93.501 -128.5s-102.5 -43.5 -164.5 -43.5c-86 0 -154.833 24.5 -206.5 73.5s-77.5 116.5 -77.5 202.5c0 78.667 27.167 143.834 81.5 195.501s120.5 77.5 198.5 77.5
c90 0 158.667 -29.667 206 -89s69 -135 65 -227zM300.001 723.999h180l-157 -149h-120z" />
    <glyph glyph-name="ecircumflex" unicode="&#xea;" horiz-adv-x="611" 
d="M202 313h210.998c-1.33301 29.333 -11.5 54.333 -30.5 75s-42.5 31 -70.5 31c-29.333 0 -53.666 -9.66699 -72.999 -29s-31.666 -45 -36.999 -77zM582.998 218l-380.997 -0.000976562c1.33301 -36 12.166 -64.667 32.499 -86s48.166 -32 83.499 -32
c21.333 0 40.833 5 58.5 15s30.5 24 38.5 42h159c-14.667 -56.667 -45.834 -99.5 -93.501 -128.5s-102.5 -43.5 -164.5 -43.5c-86 0 -154.833 24.5 -206.5 73.5s-77.5 116.5 -77.5 202.5c0 78.667 27.167 143.834 81.5 195.501s120.5 77.5 198.5 77.5
c90 0 158.667 -29.667 206 -89s69 -135 65 -227zM306.001 654.999l-60 -80h-128l112 149h152l112 -149h-128z" />
    <glyph glyph-name="edieresis" unicode="&#xeb;" horiz-adv-x="611" 
d="M202 313h210.998c-1.33301 29.333 -11.5 54.333 -30.5 75s-42.5 31 -70.5 31c-29.333 0 -53.666 -9.66699 -72.999 -29s-31.666 -45 -36.999 -77zM582.998 218l-380.997 -0.000976562c1.33301 -36 12.166 -64.667 32.499 -86s48.166 -32 83.499 -32
c21.333 0 40.833 5 58.5 15s30.5 24 38.5 42h159c-14.667 -56.667 -45.834 -99.5 -93.501 -128.5s-102.5 -43.5 -164.5 -43.5c-86 0 -154.833 24.5 -206.5 73.5s-77.5 116.5 -77.5 202.5c0 78.667 27.167 143.834 81.5 195.501s120.5 77.5 198.5 77.5
c90 0 158.667 -29.667 206 -89s69 -135 65 -227zM488.001 588.999h-150v125h150v-125zM125.001 588.999v125h150v-125h-150z" />
    <glyph glyph-name="igrave" unicode="&#xec;" horiz-adv-x="296" 
d="M233 0h-170v519h170v-519zM145 724l97 -149h-120l-157 149h180z" />
    <glyph glyph-name="iacute" unicode="&#xed;" horiz-adv-x="296" 
d="M233 0h-170v519h170v-519zM142 724h180l-157 -149h-120z" />
    <glyph glyph-name="icircumflex" unicode="&#xee;" horiz-adv-x="296" 
d="M233 0h-170v519h170v-519zM148 655l-60 -80h-128l112 149h152l112 -149h-128z" />
    <glyph glyph-name="idieresis" unicode="&#xef;" horiz-adv-x="296" 
d="M233 0h-170v519h170v-519zM330 589h-150v125h150v-125zM-33 589v125h150v-125h-150z" />
    <glyph glyph-name="eth" unicode="&#xf0;" horiz-adv-x="611" 
d="M202 242c0 -32.667 8.16699 -62 24.5 -88s42.5 -39 78.5 -39s62.333 13 79 39s25 55.333 25 88s-8.33301 62 -25 88s-43 39 -79 39s-62.167 -13 -78.5 -39s-24.5 -55.333 -24.5 -88zM92 582l120.999 66.001c-38 25.333 -72 42.666 -102 51.999l113 78
c48.667 -16.667 86.334 -37 113.001 -61l124 68l68 -61l-119 -65c49.333 -42 89.833 -97 121.5 -165s47.5 -138.667 47.5 -212c0 -92 -25.167 -164.5 -75.5 -217.5s-116.5 -79.5 -198.5 -79.5c-80 0 -145.5 24.333 -196.5 73s-76.5 110 -76.5 184c0 72 24 132.833 72 182.5
s105 74.5 171 74.5c42.667 0 75 -7 97 -21l2 2c-18 36.667 -47 74 -87 112l-128 -70z" />
    <glyph glyph-name="ntilde" unicode="&#xf1;" 
d="M57 0v518.999h165v-71h2c15.333 26 38.333 46.833 69 62.5s62 23.5 94 23.5c124.667 0 187 -67 187 -201v-333h-170v251c0 50 -2.33301 81.667 -7 95c-10 32 -36 48 -78 48c-30 0 -52.833 -10.667 -68.5 -32s-23.5 -47.666 -23.5 -78.999v-283h-170zM434 713.999h71.001
c-4.66699 -37.333 -16.834 -67.833 -36.501 -91.5s-47.167 -35.5 -82.5 -35.5c-22 0 -49 6 -81 18s-53.333 18 -64 18s-20.167 -4.5 -28.5 -13.5s-13.5 -19.5 -15.5 -31.5h-71c4.66699 36 17.667 67.667 39 95s48.666 41 81.999 41c18.667 0 45.334 -6.66699 80.001 -20
c32 -14 53.667 -21 65 -21c10.667 0 20 4.16699 28 12.5s12.667 17.833 14 28.5z" />
    <glyph glyph-name="ograve" unicode="&#xf2;" horiz-adv-x="611" 
d="M202 259c0 -39.333 8.16699 -73.168 24.5 -101.501s42.5 -42.5 78.5 -42.5s62.333 14.333 79 43s25 62.334 25 101.001s-8.33301 72.5 -25 101.5s-43 43.5 -79 43.5s-62.167 -14.333 -78.5 -43s-24.5 -62.667 -24.5 -102zM32 258.998c0 78.667 25.5 144.167 76.5 196.5
s116.5 78.5 196.5 78.5s145.667 -26.167 197 -78.5s77 -117.833 77 -196.5s-25.667 -144 -77 -196s-117 -78 -197 -78s-145.5 26 -196.5 78s-76.5 117.333 -76.5 196zM303 723.998l97 -149h-120l-157 149h180z" />
    <glyph glyph-name="oacute" unicode="&#xf3;" horiz-adv-x="611" 
d="M202 259c0 -39.333 8.16699 -73.168 24.5 -101.501s42.5 -42.5 78.5 -42.5s62.333 14.333 79 43s25 62.334 25 101.001s-8.33301 72.5 -25 101.5s-43 43.5 -79 43.5s-62.167 -14.333 -78.5 -43s-24.5 -62.667 -24.5 -102zM32 258.998c0 78.667 25.5 144.167 76.5 196.5
s116.5 78.5 196.5 78.5s145.667 -26.167 197 -78.5s77 -117.833 77 -196.5s-25.667 -144 -77 -196s-117 -78 -197 -78s-145.5 26 -196.5 78s-76.5 117.333 -76.5 196zM300 723.998h180l-157 -149h-120z" />
    <glyph glyph-name="ocircumflex" unicode="&#xf4;" horiz-adv-x="611" 
d="M202 259c0 -39.333 8.16699 -73.168 24.5 -101.501s42.5 -42.5 78.5 -42.5s62.333 14.333 79 43s25 62.334 25 101.001s-8.33301 72.5 -25 101.5s-43 43.5 -79 43.5s-62.167 -14.333 -78.5 -43s-24.5 -62.667 -24.5 -102zM32 258.998c0 78.667 25.5 144.167 76.5 196.5
s116.5 78.5 196.5 78.5s145.667 -26.167 197 -78.5s77 -117.833 77 -196.5s-25.667 -144 -77 -196s-117 -78 -197 -78s-145.5 26 -196.5 78s-76.5 117.333 -76.5 196zM306 654.998l-60 -80h-128l112 149h152l112 -149h-128z" />
    <glyph glyph-name="otilde" unicode="&#xf5;" horiz-adv-x="611" 
d="M202 259c0 -39.333 8.16699 -73.168 24.5 -101.501s42.5 -42.5 78.5 -42.5s62.333 14.333 79 43s25 62.334 25 101.001s-8.33301 72.5 -25 101.5s-43 43.5 -79 43.5s-62.167 -14.333 -78.5 -43s-24.5 -62.667 -24.5 -102zM32 258.998c0 78.667 25.5 144.167 76.5 196.5
s116.5 78.5 196.5 78.5s145.667 -26.167 197 -78.5s77 -117.833 77 -196.5s-25.667 -144 -77 -196s-117 -78 -197 -78s-145.5 26 -196.5 78s-76.5 117.333 -76.5 196zM425 713.998h71.001c-4.66699 -37.333 -16.834 -67.833 -36.501 -91.5s-47.167 -35.5 -82.5 -35.5
c-22 0 -49 6 -81 18s-53.333 18 -64 18s-20.167 -4.5 -28.5 -13.5s-13.5 -19.5 -15.5 -31.5h-71c4.66699 36 17.667 67.667 39 95s48.666 41 81.999 41c18.667 0 45.334 -6.66699 80.001 -20c32 -14 53.667 -21 65 -21c10.667 0 20 4.16699 28 12.5s12.667 17.833 14 28.5z
" />
    <glyph glyph-name="odieresis" unicode="&#xf6;" horiz-adv-x="611" 
d="M202 259c0 -39.333 8.16699 -73.168 24.5 -101.501s42.5 -42.5 78.5 -42.5s62.333 14.333 79 43s25 62.334 25 101.001s-8.33301 72.5 -25 101.5s-43 43.5 -79 43.5s-62.167 -14.333 -78.5 -43s-24.5 -62.667 -24.5 -102zM32 258.998c0 78.667 25.5 144.167 76.5 196.5
s116.5 78.5 196.5 78.5s145.667 -26.167 197 -78.5s77 -117.833 77 -196.5s-25.667 -144 -77 -196s-117 -78 -197 -78s-145.5 26 -196.5 78s-76.5 117.333 -76.5 196zM488 588.998h-150v125h150v-125zM125 588.998v125h150v-125h-150z" />
    <glyph glyph-name="divide" unicode="&#xf7;" horiz-adv-x="600" 
d="M552 181h-504v144h504v-144zM201 460c0 27.333 9.66699 50.666 29 69.999s42.666 29 69.999 29s50.666 -9.66699 69.999 -29s29 -42.666 29 -69.999s-9.66699 -50.666 -29 -69.999s-42.666 -29 -69.999 -29s-50.666 9.66699 -69.999 29s-29 42.666 -29 69.999zM201 46
c0 27.333 9.66699 50.666 29 69.999s42.666 29 69.999 29s50.666 -9.66699 69.999 -29s29 -42.666 29 -69.999s-9.66699 -50.666 -29 -69.999s-42.666 -29 -69.999 -29s-50.666 9.66699 -69.999 29s-29 42.666 -29 69.999z" />
    <glyph glyph-name="oslash" unicode="&#xf8;" horiz-adv-x="611" 
d="M212 192l159 185c-18 18 -40 27 -66 27c-36 0 -62.167 -14.333 -78.5 -43s-24.5 -62.667 -24.5 -102c0 -24.667 3.33301 -47 10 -67zM400 324l-158.999 -183.001c15.333 -17.333 36.666 -26 63.999 -26c36 0 62.333 14.333 79 43s25 62.334 25 101.001
c0 22 -3 43.667 -9 65zM88.001 -34.001l-41.999 32l59 69c-48.667 50.667 -73 114.667 -73 192c0 78.667 25.5 144.167 76.5 196.5s116.5 78.5 196.5 78.5c61.333 0 114.666 -16 159.999 -48l51 60l44 -38l-52 -60c47.333 -50.667 71 -113.667 71 -189
c0 -78.667 -25.667 -144 -77 -196s-117 -78 -197 -78c-60 0 -113 15.667 -159 47z" />
    <glyph glyph-name="ugrave" unicode="&#xf9;" 
d="M573 519l0.00195312 -519.002h-165v71h-2c-16 -26 -38.667 -46.833 -68 -62.5s-59.333 -23.5 -90 -23.5c-70.667 0 -120.334 18.833 -149.001 56.5s-43 92.834 -43 165.501v312h170v-301c0 -33.333 7 -57.166 21 -71.499s35 -21.5 63 -21.5c23.333 0 44.666 9 63.999 27
s29 47.667 29 89v278h170zM312.002 723.998l97 -149h-120l-157 149h180z" />
    <glyph glyph-name="uacute" unicode="&#xfa;" 
d="M573 519l0.00195312 -519.002h-165v71h-2c-16 -26 -38.667 -46.833 -68 -62.5s-59.333 -23.5 -90 -23.5c-70.667 0 -120.334 18.833 -149.001 56.5s-43 92.834 -43 165.501v312h170v-301c0 -33.333 7 -57.166 21 -71.499s35 -21.5 63 -21.5c23.333 0 44.666 9 63.999 27
s29 47.667 29 89v278h170zM309.002 723.998h180l-157 -149h-120z" />
    <glyph glyph-name="ucircumflex" unicode="&#xfb;" 
d="M573 519l0.00195312 -519.002h-165v71h-2c-16 -26 -38.667 -46.833 -68 -62.5s-59.333 -23.5 -90 -23.5c-70.667 0 -120.334 18.833 -149.001 56.5s-43 92.834 -43 165.501v312h170v-301c0 -33.333 7 -57.166 21 -71.499s35 -21.5 63 -21.5c23.333 0 44.666 9 63.999 27
s29 47.667 29 89v278h170zM315.002 654.998l-60 -80h-128l112 149h152l112 -149h-128z" />
    <glyph glyph-name="udieresis" unicode="&#xfc;" 
d="M573 519l0.00195312 -519.002h-165v71h-2c-16 -26 -38.667 -46.833 -68 -62.5s-59.333 -23.5 -90 -23.5c-70.667 0 -120.334 18.833 -149.001 56.5s-43 92.834 -43 165.501v312h170v-301c0 -33.333 7 -57.166 21 -71.499s35 -21.5 63 -21.5c23.333 0 44.666 9 63.999 27
s29 47.667 29 89v278h170zM497.002 588.998h-150v125h150v-125zM134.002 588.998v125h150v-125h-150z" />
    <glyph glyph-name="yacute" unicode="&#xfd;" horiz-adv-x="537" 
d="M545 519l-205 -564.999c-19.333 -53.333 -44.5 -88 -75.5 -104s-78.167 -24 -141.5 -24h-80v138h59c20 0 36.333 5.16699 49 15.5s19 24.5 19 42.5c0 6.66699 -1.83301 16.667 -5.5 30s-7.5 25.666 -11.5 36.999l-15 40.5l-11 28.5l-134 361h180l98 -338h2l98 338h174z
M263 724.001h180l-157 -149h-120z" />
    <glyph glyph-name="thorn" unicode="&#xfe;" 
d="M227 714l-0.00195312 -252h2c35.333 48 84.666 72 147.999 72c70.667 0 124.834 -27.833 162.501 -83.5s56.5 -123.167 56.5 -202.5c0 -72.667 -19.167 -134.667 -57.5 -186s-92.166 -77 -161.499 -77c-63.333 0 -112.666 23.667 -147.999 71h-2v-230h-170v888h170z
M324.998 404c-27.333 0 -51.501 -11.001 -72.501 -33.001s-31.5 -57.333 -31.5 -106c0 -100 34.333 -150 103 -150c34.667 0 60.334 14.833 77.001 44.5s25 64.834 25 105.501c0 38 -8.16699 70.667 -24.5 98s-41.833 41 -76.5 41z" />
    <glyph glyph-name="ydieresis" unicode="&#xff;" horiz-adv-x="537" 
d="M545 519l-205 -564.999c-19.333 -53.333 -44.5 -88 -75.5 -104s-78.167 -24 -141.5 -24h-80v138h59c20 0 36.333 5.16699 49 15.5s19 24.5 19 42.5c0 6.66699 -1.83301 16.667 -5.5 30s-7.5 25.666 -11.5 36.999l-15 40.5l-11 28.5l-134 361h180l98 -338h2l98 338h174z
M451 589.001h-150v125h150v-125zM88 589.001v125h150v-125h-150z" />
    <glyph glyph-name="dotlessi" unicode="&#x131;" horiz-adv-x="296" 
d="M233 0h-170v519h170v-519z" />
    <glyph glyph-name="Lslash" unicode="&#x141;" horiz-adv-x="611" 
d="M64 0v190l-66 -45v119l66 45v405h186v-276l180 124v-119l-180 -124v-159h333v-160h-519z" />
    <glyph glyph-name="lslash" unicode="&#x142;" horiz-adv-x="296" 
d="M63 0v270l-78 -59v112l78 59v332h170v-202l78 59v-112l-78 -59v-400h-170z" />
    <glyph glyph-name="OE" unicode="&#x152;" horiz-adv-x="1111" 
d="M1059 714v-149h-347v-125h317v-144h-317v-136h355v-160h-529v45c-36 -40 -90 -60 -162 -60c-68 0 -128.333 17.667 -181 53s-92.167 81 -118.5 137s-39.5 116.667 -39.5 182s13.167 126 39.5 182s65.833 101.667 118.5 137s113 53 181 53c74.667 0 128 -20.667 160 -62h2
v47h521zM396 569c-60 0 -103.833 -20.167 -131.5 -60.5s-41.5 -90.833 -41.5 -151.5s13.833 -111.167 41.5 -151.5s71.5 -60.5 131.5 -60.5c42.667 0 76.667 16.333 102 49s38 71 38 115v96c0 44 -12.667 82.333 -38 115s-59.333 49 -102 49z" />
    <glyph glyph-name="oe" unicode="&#x153;" horiz-adv-x="963" 
d="M553 313h212c-8 70.667 -42.667 106 -104 106c-30 0 -55 -10.167 -75 -30.5s-31 -45.5 -33 -75.5zM202 262c0 -98 36 -146.999 108 -146.999c34.667 0 59.667 14.667 75 44s23 62.666 23 99.999c0 96.667 -32 145 -96 145c-38.667 0 -66.667 -13.667 -84 -41
s-26 -61 -26 -101zM935 218.001l-380.001 -0.000976562c-0.666992 -34.667 10.166 -63 32.499 -85s51.166 -33 86.499 -33c24 0 43.167 4.33301 57.5 13s26.5 23.334 36.5 44.001h162c-16 -56 -48 -98.667 -96 -128s-103.667 -44 -167 -44
c-82.667 0 -144.667 25.333 -186 76c-40 -50.667 -102.333 -76 -187 -76c-79.333 0 -142.833 24.5 -190.5 73.5s-71.5 113.5 -71.5 193.5c0 84 24.833 152 74.5 204s116.167 78 199.5 78c84.667 0 145.334 -25.667 182.001 -77c18.667 24 44.834 42.833 78.501 56.5
s66.834 20.5 99.501 20.5c90.667 0 158.667 -29.333 204 -88s67 -134.667 65 -228z" />
    <glyph glyph-name="Scaron" unicode="&#x160;" horiz-adv-x="667" 
d="M23 240l186.001 0.00195312c3.33301 -74 48.333 -111 135 -111c31.333 0 58.166 6 80.499 18s33.5 30.333 33.5 55c0 12 -3.33301 22.5 -10 31.5s-18.167 17.167 -34.5 24.5s-30.333 12.833 -42 16.5s-31.334 9 -59.001 16s-47.5 12.167 -59.5 15.5
c-30 8.66699 -55.667 17.667 -77 27s-42.833 21.666 -64.5 36.999s-38.334 35 -50.001 59s-17.5 51.667 -17.5 83c0 49.333 15.333 91 46 125s67.167 57.833 109.5 71.5s87.5 20.5 135.5 20.5c78 0 145 -19.5 201 -58.5s84.333 -96.167 85 -171.5h-186
c1.33301 30 -9.33398 51.833 -32.001 65.5s-50.334 20.5 -83.001 20.5c-24 0 -45 -4.83301 -63 -14.5s-27 -25.167 -27 -46.5c0 -10.667 3.5 -20 10.5 -28s18.333 -15 34 -21s30.167 -11 43.5 -15s32.833 -9 58.5 -15s45.834 -11 60.501 -15
c29.333 -8 54.833 -16.833 76.5 -26.5s43.167 -22.334 64.5 -38.001s37.666 -35.5 48.999 -59.5s17 -51.333 17 -82c0 -43.333 -8.66699 -81 -26 -113s-41.166 -56.833 -71.499 -74.5s-63.166 -30.667 -98.499 -39s-73.666 -12.5 -114.999 -12.5
c-89.333 0 -163.166 21 -221.499 63s-87.833 106 -88.5 192zM410.001 758.002h-152l-112 149h128l60 -80l60 80h128z" />
    <glyph glyph-name="scaron" unicode="&#x161;" horiz-adv-x="556" 
d="M27 171l162.002 0.00292969c0 -24.667 9.33301 -44 28 -58c16 -12 37 -18 63 -18c20 0 38.333 4.5 55 13.5s25 22.833 25 41.5c0 4 -0.5 8 -1.5 12s-2.83301 7.5 -5.5 10.5s-5.16699 5.66699 -7.5 8s-5.83301 4.5 -10.5 6.5s-8.33398 3.66699 -11.001 5
s-6.83398 2.83301 -12.501 4.5l-12 3.5c-2.33301 0.666992 -6.33301 1.66699 -12 3s-9.16699 2 -10.5 2c-10.667 2.66699 -28.667 6.66699 -54 12s-44.333 9.66602 -57 12.999s-28.834 9.16602 -48.501 17.499s-34.334 17.5 -44.001 27.5s-18.334 23.5 -26.001 40.5
s-11.5 36.833 -11.5 59.5c0 30 7.33301 55.833 22 77.5s34.334 38.167 59.001 49.5s49.834 19.5 75.501 24.5s52.5 7.5 80.5 7.5c30.667 0 59 -2.5 85 -7.5s50.833 -13.5 74.5 -25.5s42.5 -29.5 56.5 -52.5s21.667 -50.5 23 -82.5h-157c0 20.667 -7.33301 35.667 -22 45
c-13.333 8.66699 -31.333 13 -54 13c-48.667 0 -73 -13 -73 -39c0 -9.33301 3.83301 -17.5 11.5 -24.5s19.334 -13.167 35.001 -18.5s30 -9.5 43 -12.5s30.833 -6.5 53.5 -10.5s39 -7 49 -9c46.667 -9.33301 80.334 -28 101.001 -56s31 -56 31 -84
c0 -44 -13 -80.333 -39 -109s-56.833 -48.5 -92.5 -59.5s-74.834 -16.5 -117.501 -16.5c-32.667 0 -63 3 -91 9s-54.5 15.667 -79.5 29s-44.833 32.666 -59.5 57.999s-22.667 55.333 -24 90zM354.002 575.003h-152l-112 149h128l60 -80l60 80h128z" />
    <glyph glyph-name="Ydieresis" unicode="&#x178;" horiz-adv-x="667" 
d="M687 714l-260 -448v-266h-186v266l-260 448h211l142 -290l142 290h211zM516 772h-150v125h150v-125zM153 772v125h150v-125h-150z" />
    <glyph glyph-name="Zcaron" unicode="&#x17d;" horiz-adv-x="667" 
d="M24 0v152l366 402h-344v160h584v-144l-375 -410h388v-160h-619zM410 758h-152l-112 149h128l60 -80l60 80h128z" />
    <glyph glyph-name="zcaron" unicode="&#x17e;" horiz-adv-x="537" 
d="M22 0v132l259 257h-238v130h454v-129l-259 -260h278v-130h-494zM345 575h-152l-112 149h128l60 -80l60 80h128z" />
    <glyph glyph-name="florin" unicode="&#x192;" 
d="M157 421h97.002l26 138c11.333 62.667 34.666 106.667 69.999 132s85.666 38 150.999 38c0.666992 0 27 -1 79 -3l-23 -125c-18 2 -33.333 3 -46 3c-18 0 -31.667 -5.16699 -41 -15.5s-16.333 -28.5 -21 -54.5l-21 -113h96l-20 -110h-96l-57 -305
c-12.667 -68 -35.5 -115 -68.5 -141s-84.167 -39 -153.5 -39c-8.66699 0 -21.5 0.5 -38.5 1.5s-29.833 1.5 -38.5 1.5l19 125c16 -2 30 -3 42 -3c18 0 32 4.33301 42 13s17.333 25 22 49l57 298h-97z" />
    <glyph glyph-name="circumflex" unicode="&#x2c6;" horiz-adv-x="296" 
d="M148 655l-60 -80h-128l112 149h152l112 -149h-128z" />
    <glyph glyph-name="caron" unicode="&#x2c7;" horiz-adv-x="296" 
d="M224 575h-152l-112 149h128l60 -80l60 80h128z" />
    <glyph glyph-name="breve" unicode="&#x2d8;" horiz-adv-x="296" 
d="M-26 728h71.0039c5.33301 -45.333 39.666 -68 102.999 -68s97.666 22.667 102.999 68h71c0 -46 -16.333 -83.167 -49 -111.5s-74.334 -42.5 -125.001 -42.5s-92.334 14.167 -125.001 42.5s-49 65.5 -49 111.5z" />
    <glyph glyph-name="dotaccent" unicode="&#x2d9;" horiz-adv-x="296" 
d="M223 589h-150v125h150v-125z" />
    <glyph glyph-name="ring" unicode="&#x2da;" horiz-adv-x="296" 
d="M148 560c-29.333 0 -54.5 10.667 -75.5 32s-31.5 46.333 -31.5 75c0 29.333 10.5 54.5 31.5 75.5s46.167 31.5 75.5 31.5s54.5 -10.333 75.5 -31s31.5 -46 31.5 -76c0 -29.333 -10.5 -54.5 -31.5 -75.5s-46.167 -31.5 -75.5 -31.5zM148 615c14.667 0 27 5.16699 37 15.5
s15 22.5 15 36.5c0 14.667 -5 27 -15 37s-22.333 15 -37 15s-27 -5 -37 -15s-15 -22.333 -15 -37c0 -14 5 -26.167 15 -36.5s22.333 -15.5 37 -15.5z" />
    <glyph glyph-name="ogonek" unicode="&#x2db;" horiz-adv-x="296" 
d="M140 3h74.001c-34 -32.667 -58 -58 -72 -76s-21 -35 -21 -51c0 -12.667 3.16699 -22.667 9.5 -30s13.833 -11 22.5 -11c19.333 0 39.666 13.667 60.999 41l44 -16c-35.333 -58.667 -82 -88 -140 -88c-13.333 0 -26 1.66699 -38 5s-23.833 11.333 -35.5 24
s-17.5 29.667 -17.5 51c0 50 37.667 100.333 113 151z" />
    <glyph glyph-name="tilde" unicode="&#x2dc;" horiz-adv-x="296" 
d="M267 714h71.001c-4.66699 -37.333 -16.834 -67.833 -36.501 -91.5s-47.167 -35.5 -82.5 -35.5c-22 0 -49 6 -81 18s-53.333 18 -64 18s-20.167 -4.5 -28.5 -13.5s-13.5 -19.5 -15.5 -31.5h-71c4.66699 36 17.667 67.667 39 95s48.666 41 81.999 41
c18.667 0 45.334 -6.66699 80.001 -20c32 -14 53.667 -21 65 -21c10.667 0 20 4.16699 28 12.5s12.667 17.833 14 28.5z" />
    <glyph glyph-name="hungarumlaut" unicode="&#x2dd;" horiz-adv-x="296" 
d="M64 724h125l-120 -149h-86zM229 724h125l-120 -149h-86z" />
    <glyph glyph-name="mu" unicode="&#x3bc;" 
d="M573 519l0.000976562 -519.001h-165v71h-2c-16 -26 -38.667 -46.833 -68 -62.5s-59.333 -23.5 -90 -23.5c-8.66699 0 -16 2 -22 6v-165h-170v693h170v-301c0 -33.333 7 -57.166 21 -71.499s35 -21.5 63 -21.5c23.333 0 44.666 9 63.999 27s29 47.667 29 89v278h170z" />
    <glyph glyph-name="endash" unicode="&#x2013;" horiz-adv-x="500" 
d="M0 200v144h500v-144h-500z" />
    <glyph glyph-name="emdash" unicode="&#x2014;" horiz-adv-x="1000" 
d="M130 200v144h740v-144h-740z" />
    <glyph glyph-name="quoteleft" unicode="&#x2018;" horiz-adv-x="296" 
d="M228 540l0.000976562 -186h-159v166c0.666992 52 14.167 95.167 40.5 129.5s65.833 55.833 118.5 64.5v-80c-22 -4 -39.833 -15 -53.5 -33s-19.834 -38.333 -18.501 -61h72z" />
    <glyph glyph-name="quoteright" unicode="&#x2019;" horiz-adv-x="296" 
d="M69 528l-0.000976562 186h159v-166c-0.666992 -52 -14.167 -95.167 -40.5 -129.5s-65.833 -55.833 -118.5 -64.5v80c22 4 39.833 15 53.5 33s19.834 38.333 18.501 61h-72z" />
    <glyph glyph-name="quotesinglbase" unicode="&#x201a;" horiz-adv-x="296" 
d="M69 0l-0.000976562 186h159v-166c-0.666992 -52 -14.167 -95.167 -40.5 -129.5s-65.833 -55.833 -118.5 -64.5v80c22 4 39.833 15 53.5 33s19.834 38.333 18.501 61h-72z" />
    <glyph glyph-name="quotedblleft" unicode="&#x201c;" horiz-adv-x="500" 
d="M214 540l0.000976562 -186h-159v166c0.666992 52 14.167 95.167 40.5 129.5s65.833 55.833 118.5 64.5v-80c-22 -4 -39.833 -15 -53.5 -33s-19.834 -38.333 -18.501 -61h72zM445.001 540l0.000976562 -186h-159v166c0.666992 52 14.167 95.167 40.5 129.5
s65.833 55.833 118.5 64.5v-80c-22 -4 -39.833 -15 -53.5 -33s-19.834 -38.333 -18.501 -61h72z" />
    <glyph glyph-name="quotedblright" unicode="&#x201d;" horiz-adv-x="500" 
d="M286 528l-0.000976562 186h159v-166c-0.666992 -52 -14.167 -95.167 -40.5 -129.5s-65.833 -55.833 -118.5 -64.5v80c22 4 39.833 15 53.5 33s19.834 38.333 18.501 61h-72zM54.999 528l-0.000976562 186h159v-166c-0.666992 -52 -14.167 -95.167 -40.5 -129.5
s-65.833 -55.833 -118.5 -64.5v80c22 4 39.833 15 53.5 33s19.834 38.333 18.501 61h-72z" />
    <glyph glyph-name="quotedblbase" unicode="&#x201e;" horiz-adv-x="500" 
d="M286 0l-0.000976562 186h159v-166c-0.666992 -52 -14.167 -95.167 -40.5 -129.5s-65.833 -55.833 -118.5 -64.5v80c22 4 39.833 15 53.5 33s19.834 38.333 18.501 61h-72zM54.999 0l-0.000976562 186h159v-166c-0.666992 -52 -14.167 -95.167 -40.5 -129.5
s-65.833 -55.833 -118.5 -64.5v80c22 4 39.833 15 53.5 33s19.834 38.333 18.501 61h-72z" />
    <glyph glyph-name="dagger" unicode="&#x2020;" 
d="M233 376h-181v144h181v194h164v-194h181v-144h-181v-550h-164v550z" />
    <glyph glyph-name="daggerdbl" unicode="&#x2021;" 
d="M397 -174h-164v194h-182v144h182v212h-182v144h182v194h164v-194h181v-144h-181v-212h182v-144h-182v-194z" />
    <glyph glyph-name="bullet" unicode="&#x2022;" horiz-adv-x="500" 
d="M72 357c0 49.333 17.333 91.333 52 126s76.667 52 126 52s91.5 -17.333 126.5 -52s52.5 -76.667 52.5 -126s-17.5 -91.5 -52.5 -126.5s-77.167 -52.5 -126.5 -52.5s-91.333 17.5 -126 52.5s-52 77.167 -52 126.5z" />
    <glyph glyph-name="ellipsis" unicode="&#x2026;" horiz-adv-x="1000" 
d="M260 0h-186v186h186v-186zM593 0h-186v186h186v-186zM926 0h-186v186h186v-186z" />
    <glyph glyph-name="perthousand" unicode="&#x2030;" horiz-adv-x="1167" 
d="M259 -27h-99l404 751h99zM71 532c0 51.333 11.668 93.167 35.001 125.5s60 48.5 110 48.5c96.667 0 145 -58 145 -174c0 -52 -11.833 -93.667 -35.5 -125s-60.5 -47 -110.5 -47c-50.667 0 -87.334 15.667 -110.001 47s-34 73 -34 125zM458.001 157.001
c0 51.333 11.668 93.167 35.001 125.5s60 48.5 110 48.5c96.667 0 145 -58 145 -174c0 -52 -11.833 -93.667 -35.5 -125s-60.5 -47 -110.5 -47c-50.667 0 -87.334 15.667 -110.001 47s-34 73 -34 125zM556.002 157.002c0 -67.333 15.333 -101 46 -101c32 0 48 33.667 48 101
c0 68.667 -15.667 103 -47 103s-47 -34.333 -47 -103zM806.002 157.002c0 51.333 11.668 93.167 35.001 125.5s60 48.5 110 48.5c96.667 0 145 -58 145 -174c0 -52 -11.833 -93.667 -35.5 -125s-60.5 -47 -110.5 -47c-50.667 0 -87.334 15.667 -110.001 47s-34 73 -34 125z
M904.003 157.003c0 -67.333 15.333 -101 46 -101c32 0 48 33.667 48 101c0 68.667 -15.667 103 -47 103s-47 -34.333 -47 -103zM169.003 532.003c0 -67.333 15.333 -101 46 -101c32 0 48 33.667 48 101c0 68.667 -15.667 103 -47 103s-47 -34.333 -47 -103z" />
    <glyph glyph-name="guilsinglleft" unicode="&#x2039;" horiz-adv-x="241" 
d="M41 194v152l159 128v-137l-86 -67l86 -66v-137z" />
    <glyph glyph-name="guilsinglright" unicode="&#x203a;" horiz-adv-x="241" 
d="M200 347v-152l-159 -128v137l86 67l-86 66v137z" />
    <glyph glyph-name="fraction" unicode="&#x2044;" horiz-adv-x="167" 
d="M-70 -27h-99l411 751h99z" />
    <glyph glyph-name="trademark" unicode="&#x2122;" horiz-adv-x="1000" 
d="M386 714v-95h-110v-317h-125v317h-110v95h345zM625 714l89 -239l89 239h156v-412h-110v270h-2l-89 -270h-88l-89 270h-2v-270h-110v412h156z" />
    <glyph glyph-name="minus" unicode="&#x2212;" horiz-adv-x="600" 
d="M552 181h-504v144h504v-144z" />
    <glyph glyph-name="fi" unicode="&#xfb01;" horiz-adv-x="648" 
d="M415 0v519h170v-519h-170zM585 714v-130h-170v130h170zM94 0v409h-82v110h82c0 74 14.5 125 43.5 153s80.167 42 153.5 42c0.666992 0 28 -1 82 -3v-120c-16 2 -31.333 3 -46 3c-22 0 -38 -3.16699 -48 -9.5s-15 -20.5 -15 -42.5v-23h102v-110h-102v-409h-170z" />
    <glyph glyph-name="fl" unicode="&#xfb02;" horiz-adv-x="648" 
d="M94 0v409h-82v110h82c0 74 14.5 125 43.5 153s80.167 42 153.5 42c0.666992 0 28 -1 82 -3v-120c-16 2 -31.333 3 -46 3c-22 0 -38 -3.16699 -48 -9.5s-15 -20.5 -15 -42.5v-23h102v-110h-102v-409h-170zM585 714v-714h-170v714h170z" />
    <glyph glyph-name=".null" horiz-adv-x="0" 
 />
    <glyph glyph-name="nonmarkingreturn" horiz-adv-x="333" 
 />
  </font>
</defs>
</svg>
